<?xml version="1.0" encoding="UTF-8"?>
<svg width="289px" height="214px" viewBox="0 0 289 214" version="1.1" xmlns="http://www.w3.org/2000/svg" xmlns:xlink="http://www.w3.org/1999/xlink">
    <!-- Generator: Sketch 52.3 (67297) - http://www.bohemiancoding.com/sketch -->
    <title>Group 2</title>
    <desc>Created with Sketch.</desc>
    <defs>
        <rect id="path-1" x="0" y="0" width="183.673469" height="90.5612245"></rect>
        <filter x="-3.3%" y="-6.6%" width="106.5%" height="113.3%" filterUnits="objectBoundingBox" id="filter-2">
            <feOffset dx="0" dy="0" in="SourceAlpha" result="shadowOffsetOuter1"></feOffset>
            <feGaussianBlur stdDeviation="2" in="shadowOffsetOuter1" result="shadowBlurOuter1"></feGaussianBlur>
            <feColorMatrix values="0 0 0 0 0   0 0 0 0 0   0 0 0 0 0  0 0 0 0.128283514 0" type="matrix" in="shadowBlurOuter1"></feColorMatrix>
        </filter>
        <rect id="path-3" x="0" y="0" width="183.673469" height="90.5612245"></rect>
        <filter x="-3.3%" y="-6.6%" width="106.5%" height="113.3%" filterUnits="objectBoundingBox" id="filter-4">
            <feOffset dx="0" dy="0" in="SourceAlpha" result="shadowOffsetOuter1"></feOffset>
            <feGaussianBlur stdDeviation="2" in="shadowOffsetOuter1" result="shadowBlurOuter1"></feGaussianBlur>
            <feColorMatrix values="0 0 0 0 0   0 0 0 0 0   0 0 0 0 0  0 0 0 0.128283514 0" type="matrix" in="shadowBlurOuter1"></feColorMatrix>
        </filter>
    </defs>
    <g id="险种场景配置" stroke="none" stroke-width="1" fill="none" fill-rule="evenodd">
        <g id="险种-初始" transform="translate(-750.000000, -342.000000)">
            <g id="Group-2" transform="translate(750.000000, 342.000000)">
                <path d="M174.26893,29.2704581 C162.127389,39.5906543 146.378826,38.9229696 132.578159,33.5525772 C118.777493,28.1821848 106.100411,18.6243057 92.6541468,11.829169 C81.3815462,6.13282027 69.5524036,2.39220919 57.5788751,0.728255001 C40.4415819,-1.65332872 21.3038878,1.25399092 9.36448681,17.9303343 C-3.93214155,36.5098418 -2.91093949,70.0202494 11.4646453,87.0646079 C18.7810724,95.7392506 28.3604202,99.9977116 36.7138006,106.779705 C45.0671809,113.561698 52.8036397,124.801932 52.092211,137.876985 C51.4332863,149.968911 43.7755835,159.266551 35.8501104,165.094333 C29.7255232,169.597261 22.1833291,174.515521 21.4456485,183.844705 C20.7315946,192.868962 27.0740732,199.942739 33.1304052,203.964619 C52.8876461,217.084358 77.2337332,216.958182 96.9227189,203.633405 C103.942499,198.878124 110.389985,192.55352 117.753666,188.85234 C137.08825,179.126225 158.394358,188.915428 178.868278,192.498318 C196.194585,195.529186 213.964551,193.957235 230.8472,187.903386 C240.985715,184.267922 251.163608,178.703008 258.28577,168.356525 C263.423283,160.891075 266.6234,151.440971 269.626626,142.109159 C272.829368,132.160483 275.908725,122.139956 278.864698,112.047579 C280.636707,105.988472 282.382464,99.813704 282.841873,93.3340088 C283.671436,81.5890683 280.174672,69.9781905 275.412563,60.0680684 C264.105835,36.5334999 245.062648,19.9859618 224.439091,15.7827031 C203.815535,11.5794444 181.997514,19.7888108 166.002182,37.7532072" id="Path" fill="#C2E4FF"></path>
                <path d="M229.038349,206.389742 C196.30257,206.389742 169.671391,179.740049 169.671391,146.981511 C169.671391,114.222973 196.293915,87.5732801 229.038349,87.5732801 C261.782783,87.5732801 288.396651,114.22586 288.396651,146.981511 C288.396651,179.737162 261.762588,206.389742 229.038349,206.389742 Z M229.038349,88.1506757 C196.619917,88.1506757 170.248386,114.543428 170.248386,146.981511 C170.248386,179.419595 196.611262,205.812346 229.038349,205.812346 C261.465436,205.812346 287.828312,179.419595 287.828312,146.981511 C287.828312,114.543428 261.445241,88.1506757 229.038349,88.1506757 Z" id="Shape" fill="#6DB2F7" fill-rule="nonzero"></path>
                <path d="M229.038349,193.057678 C203.650594,193.057678 182.991308,172.386916 182.991308,146.981511 C182.991308,121.576106 203.650594,100.905344 229.038349,100.905344 C254.426104,100.905344 275.082505,121.576106 275.082505,146.981511 C275.082505,172.386916 254.426104,193.057678 229.038349,193.057678 Z M229.038349,101.48274 C203.965056,101.48274 183.568302,121.893673 183.568302,146.981511 C183.568302,172.069349 203.965056,192.480283 229.038349,192.480283 C254.111642,192.480283 274.50551,172.069349 274.50551,146.981511 C274.50551,121.893673 254.100102,101.48274 229.038349,101.48274 Z" id="Shape" fill="#6DB2F7" fill-rule="nonzero"></path>
                <path d="M229.038349,178.738268 C211.511761,178.738268 197.303655,164.520284 197.303655,146.981511 C197.303655,129.442739 211.511761,115.224754 229.038349,115.224754 C246.564936,115.224754 260.773043,129.442739 260.773043,146.981511 C260.752376,164.51171 246.556369,178.717587 229.038349,178.738268 Z M229.038349,115.80215 C211.830427,115.80215 197.880649,129.761625 197.880649,146.981511 C197.880649,164.201397 211.830427,178.160872 229.038349,178.160872 C246.246271,178.160872 260.196048,164.201397 260.196048,146.981511 C260.175383,129.770199 246.237704,115.82283 229.038349,115.80215 Z" id="Shape" fill="#6DB2F7" fill-rule="nonzero"></path>
                <g id="undraw_add_file2_gvbb" transform="translate(30.000000, 49.000000)">
                    <g id="Group">
                        <g id="Rectangle-2">
                            <use fill="black" fill-opacity="1" filter="url(#filter-2)" xlink:href="#path-1"></use>
                            <use fill="#FFFFFF" fill-rule="evenodd" xlink:href="#path-1"></use>
                        </g>
                        <polygon id="Rectangle-path" fill="#4291EB" fill-rule="nonzero" opacity="0.5" points="26.9398968 18.8207838 76.9546143 18.8207838 76.9546143 22.636802 26.9398968 22.636802"></polygon>
                        <polygon id="Rectangle-path" fill="#E0E0E0" fill-rule="nonzero" points="26.9398968 34.0778482 76.9546143 34.0778482 76.9546143 37.8938663 26.9398968 37.8938663"></polygon>
                        <polygon id="Rectangle-path" fill="#69F0AE" fill-rule="nonzero" opacity="0.5" points="26.9398968 26.449316 157.490469 26.449316 157.490469 30.2653342 26.9398968 30.2653342"></polygon>
                        <polygon id="Rectangle-path" fill="#4291EB" fill-rule="nonzero" opacity="0.5" points="26.9398968 54.3072998 76.9546143 54.3072998 76.9546143 58.123318 26.9398968 58.123318"></polygon>
                        <polygon id="Rectangle-path" fill="#E0E0E0" fill-rule="nonzero" points="26.9398968 69.5643642 76.9546143 69.5643642 76.9546143 73.3803824 26.9398968 73.3803824"></polygon>
                        <polygon id="Rectangle-path" fill="#E0E0E0" fill-rule="nonzero" points="26.9398968 61.935832 133.960109 61.935832 133.960109 65.7518502 26.9398968 65.7518502"></polygon>
                    </g>
                    <g id="Group" transform="translate(35.714286, 28.061224)">
                        <g id="Rectangle-2">
                            <use fill="black" fill-opacity="1" filter="url(#filter-4)" xlink:href="#path-3"></use>
                            <use fill="#FFFFFF" fill-rule="evenodd" xlink:href="#path-3"></use>
                        </g>
                        <polygon id="Rectangle-path" fill="#4291EB" fill-rule="nonzero" opacity="0.5" points="26.9398968 18.8207838 76.9546143 18.8207838 76.9546143 22.636802 26.9398968 22.636802"></polygon>
                        <polygon id="Rectangle-path" fill="#E0E0E0" fill-rule="nonzero" points="26.9398968 34.0778482 76.9546143 34.0778482 76.9546143 37.8938663 26.9398968 37.8938663"></polygon>
                        <polygon id="Rectangle-path" fill="#69F0AE" fill-rule="nonzero" opacity="0.5" points="26.9398968 26.449316 157.490469 26.449316 157.490469 30.2653342 26.9398968 30.2653342"></polygon>
                        <polygon id="Rectangle-path" fill="#4291EB" fill-rule="nonzero" opacity="0.5" points="26.9398968 54.3072998 76.9546143 54.3072998 76.9546143 58.123318 26.9398968 58.123318"></polygon>
                        <polygon id="Rectangle-path" fill="#E0E0E0" fill-rule="nonzero" points="26.9398968 69.5643642 76.9546143 69.5643642 76.9546143 73.3803824 26.9398968 73.3803824"></polygon>
                        <polygon id="Rectangle-path" fill="#E0E0E0" fill-rule="nonzero" points="26.9398968 61.935832 133.960109 61.935832 133.960109 65.7518502 26.9398968 65.7518502"></polygon>
                    </g>
                </g>
                <g id="triangle" transform="translate(218.000000, 138.000000)">
                    <path d="M10.3057659,1.18154946 L0.316106036,18.5351858 C-0.103009579,19.290449 -0.10551194,20.2204116 0.309532581,20.9781052 C0.724577101,21.7357988 1.4948293,22.2074187 2.33290867,22.217004 L22.3122283,22.217004 C23.1503077,22.2074187 23.9205599,21.7357988 24.3356044,20.9781052 C24.7506489,20.2204116 24.7481466,19.290449 24.329031,18.5351858 L14.3393711,1.18154946 C13.9117551,0.447985626 13.1470824,0 12.3225685,0 C11.4980546,0 10.7333819,0.447985626 10.3057659,1.18154946 Z" id="Shape" stroke="#EB3850" stroke-width="2" fill="#EB3850" stroke-linecap="round" stroke-linejoin="round"></path>
                    <rect id="Rectangle" fill="#FFFFFF" x="11" y="6" width="3" height="8" rx="1.5"></rect>
                    <circle id="Oval-2" fill="#FFFFFF" cx="12.5" cy="17.5" r="1.5"></circle>
                </g>
            </g>
        </g>
    </g>
</svg>