<?xml version="1.0" encoding="UTF-8"?>
<svg width="285px" height="241px" viewBox="0 0 285 241" version="1.1" xmlns="http://www.w3.org/2000/svg" xmlns:xlink="http://www.w3.org/1999/xlink">
    <!-- Generator: Sketch 52.3 (67297) - http://www.bohemiancoding.com/sketch -->
    <title>Group 2</title>
    <desc>Created with Sketch.</desc>
    <defs>
        <linearGradient x1="49.9972224%" y1="100%" x2="49.9972224%" y2="0%" id="linearGradient-1">
            <stop stop-color="#B3B3B3" stop-opacity="0.25" offset="0%"></stop>
            <stop stop-color="#B3B3B3" stop-opacity="0.1" offset="54%"></stop>
            <stop stop-color="#B3B3B3" stop-opacity="0.05" offset="100%"></stop>
        </linearGradient>
        <linearGradient x1="50.0056123%" y1="100%" x2="50.0056123%" y2="0%" id="linearGradient-2">
            <stop stop-color="#B3B3B3" stop-opacity="0.25" offset="0%"></stop>
            <stop stop-color="#B3B3B3" stop-opacity="0.1" offset="54%"></stop>
            <stop stop-color="#B3B3B3" stop-opacity="0.05" offset="100%"></stop>
        </linearGradient>
    </defs>
    <g id="保单配置" stroke="none" stroke-width="1" fill="none" fill-rule="evenodd">
        <g id="团单列表-初始" transform="translate(-750.000000, -315.000000)">
            <g id="Group-2" transform="translate(750.000000, 315.000000)">
                <path d="M174.26893,56.2704581 C162.127389,66.5906543 146.378826,65.9229696 132.578159,60.5525772 C118.777493,55.1821848 106.100411,45.6243057 92.6541468,38.829169 C81.3815462,33.1328203 69.5524036,29.3922092 57.5788751,27.728255 C40.4415819,25.3466713 21.3038878,28.2539909 9.36448681,44.9303343 C-3.93214155,63.5098418 -2.91093949,97.0202494 11.4646453,114.064608 C18.7810724,122.739251 28.3604202,126.997712 36.7138006,133.779705 C45.0671809,140.561698 52.8036397,151.801932 52.092211,164.876985 C51.4332863,176.968911 43.7755835,186.266551 35.8501104,192.094333 C29.7255232,196.597261 22.1833291,201.515521 21.4456485,210.844705 C20.7315946,219.868962 27.0740732,226.942739 33.1304052,230.964619 C52.8876461,244.084358 77.2337332,243.958182 96.9227189,230.633405 C103.942499,225.878124 110.389985,219.55352 117.753666,215.85234 C137.08825,206.126225 158.394358,215.915428 178.868278,219.498318 C196.194585,222.529186 213.964551,220.957235 230.8472,214.903386 C240.985715,211.267922 251.163608,205.703008 258.28577,195.356525 C263.423283,187.891075 266.6234,178.440971 269.626626,169.109159 C272.829368,159.160483 275.908725,149.139956 278.864698,139.047579 C280.636707,132.988472 282.382464,126.813704 282.841873,120.334009 C283.671436,108.589068 280.174672,96.9781905 275.412563,87.0680684 C264.105835,63.5334999 245.062648,46.9859618 224.439091,42.7827031 C203.815535,38.5794444 181.997514,46.7888108 166.002182,64.7532072" id="Path" fill="#C2E4FF"></path>
                <path d="M225.038349,232.389742 C192.30257,232.389742 165.671391,205.740049 165.671391,172.981511 C165.671391,140.222973 192.293915,113.57328 225.038349,113.57328 C257.782783,113.57328 284.396651,140.22586 284.396651,172.981511 C284.396651,205.737162 257.762588,232.389742 225.038349,232.389742 Z M225.038349,114.150676 C192.619917,114.150676 166.248386,140.543428 166.248386,172.981511 C166.248386,205.419595 192.611262,231.812346 225.038349,231.812346 C257.465436,231.812346 283.828312,205.419595 283.828312,172.981511 C283.828312,140.543428 257.445241,114.150676 225.038349,114.150676 Z" id="Shape" fill="#6DB2F7" fill-rule="nonzero"></path>
                <path d="M225.038349,219.057678 C199.650594,219.057678 178.991308,198.386916 178.991308,172.981511 C178.991308,147.576106 199.650594,126.905344 225.038349,126.905344 C250.426104,126.905344 271.082505,147.576106 271.082505,172.981511 C271.082505,198.386916 250.426104,219.057678 225.038349,219.057678 Z M225.038349,127.48274 C199.965056,127.48274 179.568302,147.893673 179.568302,172.981511 C179.568302,198.069349 199.965056,218.480283 225.038349,218.480283 C250.111642,218.480283 270.50551,198.069349 270.50551,172.981511 C270.50551,147.893673 250.100102,127.48274 225.038349,127.48274 Z" id="Shape" fill="#6DB2F7" fill-rule="nonzero"></path>
                <path d="M225.038349,204.738268 C207.511761,204.738268 193.303655,190.520284 193.303655,172.981511 C193.303655,155.442739 207.511761,141.224754 225.038349,141.224754 C242.564936,141.224754 256.773043,155.442739 256.773043,172.981511 C256.752376,190.51171 242.556369,204.717587 225.038349,204.738268 Z M225.038349,141.80215 C207.830427,141.80215 193.880649,155.761625 193.880649,172.981511 C193.880649,190.201397 207.830427,204.160872 225.038349,204.160872 C242.246271,204.160872 256.196048,190.201397 256.196048,172.981511 C256.175383,155.770199 242.237704,141.82283 225.038349,141.80215 Z" id="Shape" fill="#6DB2F7" fill-rule="nonzero"></path>
                <g id="undraw_add_file2_gvbb" transform="translate(50.000000, 0.000000)" fill-rule="nonzero">
                    <path d="M113.736264,176.648352 C113.736264,162.428571 127.777473,149.318681 141.997253,149.318681 C144.175824,149.318681 146.288462,148.769231 148.315934,149.274725 C148.343407,148.653846 148.35989,145.005495 148.35989,144.379121 L148.35989,0 L25.2747253,0 L0,25.9615385 L0,193.956044 L116.208791,193.956044 C113.708791,189.989011 113.736264,181.686813 113.736264,176.648352 Z" id="Shape" fill="url(#linearGradient-1)"></path>
                    <path d="M111.538462,179.395604 C111.538462,161.643595 125.929309,147.252747 143.681319,147.252747 C144.651099,147.252747 145.604396,147.299451 146.56044,147.381868 L146.56044,72.8543956 L2.32967033,72.8543956 L2.32967033,190.659341 L113.568681,190.659341 C112.222053,187.056862 111.534365,183.241543 111.538462,179.395604 Z" id="Shape" fill="#FCFCFC"></path>
                    <polygon id="Shape" fill="#FCFCFC" points="146.453297 73.9532967 1.89835165 73.9532967 1.89835165 25.9615385 25.2747253 1.51098901 146.453297 1.51098901"></polygon>
                    <polygon id="Rectangle-path" fill="#E0E0E0" points="98.239011 16.0961538 137.450549 16.0961538 137.450549 19.0879121 98.239011 19.0879121"></polygon>
                    <polygon id="Rectangle-path" fill="#E0E0E0" points="98.239011 27.0851648 137.450549 27.0851648 137.450549 30.0769231 98.239011 30.0769231"></polygon>
                    <polygon id="Rectangle-path" fill="#E0E0E0" points="98.239011 38.0741758 137.450549 38.0741758 137.450549 41.0659341 98.239011 41.0659341"></polygon>
                    <polygon id="Rectangle-path" fill="#4291EB" opacity="0.5" points="98.239011 49.0631868 137.450549 49.0631868 137.450549 52.0549451 98.239011 52.0549451"></polygon>
                    <polygon id="Rectangle-path" fill="#E0E0E0" points="98.239011 60.0521978 137.450549 60.0521978 137.450549 63.043956 98.239011 63.043956"></polygon>
                    <polygon id="Rectangle-path" fill="#E0E0E0" points="98.239011 71.0412088 137.450549 71.0412088 137.450549 74.032967 98.239011 74.032967"></polygon>
                    <polygon id="Rectangle-path" fill="#4291EB" opacity="0.5" points="23.2747253 94.3928571 62.4862637 94.3928571 62.4862637 97.3846154 23.2747253 97.3846154"></polygon>
                    <polygon id="Rectangle-path" fill="#E0E0E0" points="23.2747253 106.354396 62.4862637 106.354396 62.4862637 109.346154 23.2747253 109.346154"></polygon>
                    <polygon id="Rectangle-path" fill="#69F0AE" opacity="0.5" points="23.2747253 100.373626 125.626374 100.373626 125.626374 103.365385 23.2747253 103.365385"></polygon>
                    <polygon id="Rectangle-path" fill="#4291EB" opacity="0.5" points="23.2747253 123.302198 62.4862637 123.302198 62.4862637 126.293956 23.2747253 126.293956"></polygon>
                    <polygon id="Rectangle-path" fill="#E0E0E0" points="23.2747253 135.266484 62.4862637 135.266484 62.4862637 138.258242 23.2747253 138.258242"></polygon>
                    <polygon id="Rectangle-path" fill="#E0E0E0" points="23.2747253 129.282967 125.626374 129.282967 125.626374 132.274725 23.2747253 132.274725"></polygon>
                    <polygon id="Rectangle-path" fill="#4291EB" opacity="0.5" points="23.2747253 152.214286 62.4862637 152.214286 62.4862637 155.206044 23.2747253 155.206044"></polygon>
                    <polygon id="Rectangle-path" fill="#E0E0E0" points="23.2747253 164.175824 62.4862637 164.175824 62.4862637 167.167582 23.2747253 167.167582"></polygon>
                    <polygon id="Rectangle-path" fill="#E0E0E0" points="23.2747253 158.195055 107.178571 158.195055 107.178571 161.186813 23.2747253 161.186813"></polygon>
                    <polygon id="Shape" fill="#6DB2F7" points="85.1648352 77.1978022 13.7362637 77.1978022 13.7362637 14.8351648 16.2087912 11.8131868 21.9093407 11.8131868 85.1648352 11.8131868"></polygon>
                    <polygon id="Shape" fill="url(#linearGradient-2)" points="1.3489011 26.510989 25.8241758 26.510989 25.8241758 0.961538462"></polygon>
                    <polygon id="Shape" fill="#F5F5F5" points="1.89835165 25.9615385 25.2747253 25.9615385 25.2747253 1.51098901"></polygon>
                    <path d="M177.206044,205.160872 C177.233516,204.539993 177.206044,157.368132 177.206044,156.741758 L177.206044,12.3626374 L54.1208791,12.3626374 L28.8461538,38.3241758 L28.8461538,206.318681 C126.401099,205.209812 175.854396,204.823876 177.206044,205.160872 Z" id="Shape" fill="url(#linearGradient-1)"></path>
                    <path d="M175.406593,203.021978 C176.376374,203.021978 174.450549,159.662088 175.406593,159.744505 L175.406593,85.217033 L31.1758242,85.217033 L31.1758242,203.021978 C115.494997,203.021978 163.57192,203.021978 175.406593,203.021978 Z" id="Shape" fill="#FFFFFF"></path>
                    <polygon id="Shape" fill="#FFFFFF" points="175.299451 86.3159341 30.7445055 86.3159341 30.7445055 38.3241758 54.1208791 13.8736264 175.299451 13.8736264"></polygon>
                    <polygon id="Rectangle-path" fill="#E0E0E0" points="127.085165 28.4587912 166.296703 28.4587912 166.296703 31.4505495 127.085165 31.4505495"></polygon>
                    <polygon id="Rectangle-path" fill="#E0E0E0" points="127.085165 39.4478022 166.296703 39.4478022 166.296703 42.4395604 127.085165 42.4395604"></polygon>
                    <polygon id="Rectangle-path" fill="#E0E0E0" points="127.085165 50.4368132 166.296703 50.4368132 166.296703 53.4285714 127.085165 53.4285714"></polygon>
                    <polygon id="Rectangle-path" fill="#4291EB" opacity="0.5" points="127.085165 61.4258242 166.296703 61.4258242 166.296703 64.4175824 127.085165 64.4175824"></polygon>
                    <polygon id="Rectangle-path" fill="#E0E0E0" points="127.085165 72.4148352 166.296703 72.4148352 166.296703 75.4065934 127.085165 75.4065934"></polygon>
                    <polygon id="Rectangle-path" fill="#E0E0E0" points="127.085165 83.4038462 166.296703 83.4038462 166.296703 86.3956044 127.085165 86.3956044"></polygon>
                    <polygon id="Rectangle-path" fill="#4291EB" opacity="0.5" points="52.1208791 106.755495 91.3324176 106.755495 91.3324176 109.747253 52.1208791 109.747253"></polygon>
                    <polygon id="Rectangle-path" fill="#E0E0E0" points="52.1208791 118.717033 91.3324176 118.717033 91.3324176 121.708791 52.1208791 121.708791"></polygon>
                    <polygon id="Rectangle-path" fill="#69F0AE" opacity="0.5" points="52.1208791 112.736264 154.472527 112.736264 154.472527 115.728022 52.1208791 115.728022"></polygon>
                    <polygon id="Rectangle-path" fill="#4291EB" opacity="0.5" points="52.1208791 135.664835 91.3324176 135.664835 91.3324176 138.656593 52.1208791 138.656593"></polygon>
                    <polygon id="Rectangle-path" fill="#E0E0E0" points="52.1208791 147.629121 91.3324176 147.629121 91.3324176 150.620879 52.1208791 150.620879"></polygon>
                    <polygon id="Rectangle-path" fill="#E0E0E0" points="52.1208791 141.645604 154.472527 141.645604 154.472527 144.637363 52.1208791 144.637363"></polygon>
                    <polygon id="Rectangle-path" fill="#4291EB" opacity="0.5" points="52.1208791 164.576923 91.3324176 164.576923 91.3324176 167.568681 52.1208791 167.568681"></polygon>
                    <polygon id="Rectangle-path" fill="#E0E0E0" points="52.1208791 176.538462 91.3324176 176.538462 91.3324176 179.53022 52.1208791 179.53022"></polygon>
                    <polygon id="Rectangle-path" fill="#E0E0E0" points="52.1208791 170.557692 136.024725 170.557692 136.024725 173.549451 52.1208791 173.549451"></polygon>
                    <polygon id="Shape" fill="#6DB2F7" points="114.010989 89.5604396 42.5824176 89.5604396 42.5824176 27.1978022 45.0549451 24.1758242 50.7554945 24.1758242 114.010989 24.1758242"></polygon>
                    <polygon id="Shape" fill="url(#linearGradient-2)" points="30.1950549 38.8736264 54.6703297 38.8736264 54.6703297 13.3241758"></polygon>
                    <polygon id="Shape" fill="#FCFCFC" points="30.7445055 38.3241758 54.1208791 38.3241758 54.1208791 13.8736264"></polygon>
                </g>
                <g id="triangle" transform="translate(213.000000, 160.000000)">
                    <path d="M10.3057659,1.18154946 L0.316106036,18.5351858 C-0.103009579,19.290449 -0.10551194,20.2204116 0.309532581,20.9781052 C0.724577101,21.7357988 1.4948293,22.2074187 2.33290867,22.217004 L22.3122283,22.217004 C23.1503077,22.2074187 23.9205599,21.7357988 24.3356044,20.9781052 C24.7506489,20.2204116 24.7481466,19.290449 24.329031,18.5351858 L14.3393711,1.18154946 C13.9117551,0.447985626 13.1470824,0 12.3225685,0 C11.4980546,0 10.7333819,0.447985626 10.3057659,1.18154946 Z" id="Shape" stroke="#EB3850" stroke-width="2" fill="#EB3850" stroke-linecap="round" stroke-linejoin="round"></path>
                    <rect id="Rectangle" fill="#FFFFFF" x="11" y="6" width="3" height="8" rx="1.5"></rect>
                    <circle id="Oval-2" fill="#FFFFFF" cx="12.5" cy="17.5" r="1.5"></circle>
                </g>
            </g>
        </g>
    </g>
</svg>