<?xml version="1.0" encoding="UTF-8"?>
<svg width="214px" height="217px" viewBox="0 0 214 217" version="1.1" xmlns="http://www.w3.org/2000/svg" xmlns:xlink="http://www.w3.org/1999/xlink">
    <!-- Generator: Sketch 52.6 (67491) - http://www.bohemiancoding.com/sketch -->
    <title>undraw_secure_server_s9u8</title>
    <desc>Created with Sketch.</desc>
    <defs>
        <linearGradient x1="49.9984579%" y1="100%" x2="49.9984579%" y2="0%" id="linearGradient-1">
            <stop stop-color="#808080" stop-opacity="0.25" offset="0%"></stop>
            <stop stop-color="#808080" stop-opacity="0.12" offset="54%"></stop>
            <stop stop-color="#808080" stop-opacity="0.1" offset="100%"></stop>
        </linearGradient>
    </defs>
    <g id="险种录入" stroke="none" stroke-width="1" fill="none" fill-rule="evenodd">
        <g id="导入初始状态" transform="translate(-812.000000, -381.000000)">
            <g id="undraw_secure_server_s9u8" transform="translate(812.000000, 381.000000)">
                <g id="Group" opacity="0.8" transform="translate(8.269053, 119.886269)" fill="#D6DBE2">
                    <path d="M137.850127,91.7151179 L0.0175404157,91.7151179 L0.0175404157,4.04188627 C0.0175404157,2.99573412 0.434661043,1.99242965 1.17714052,1.25268837 C1.91962,0.512947093 2.92663827,0.0973647712 3.97666282,0.0973647712 L133.888499,0.0973647712 C136.075062,0.0973647712 137.847621,1.8633872 137.847621,4.04188627 L137.850127,91.7151179 Z" id="Path"></path>
                </g>
                <path d="M14.1450924,121.596394 L140.260681,121.596394 C142.447244,121.596394 144.219804,123.362416 144.219804,125.540915 L144.219804,211.601387 L10.18597,211.601387 L10.18597,125.540915 C10.18597,123.362416 11.9585295,121.596394 14.1450924,121.596394 Z" id="Path" fill="#FFFFFF"></path>
                <rect id="Rectangle" fill="#F5F5F5" x="15.5009122" y="126.831623" width="124.403949" height="81.9486824"></rect>
                <rect id="Rectangle" fill="#E5E8ED" opacity="0.8" x="14.9820208" y="130.811096" width="124.872725" height="73.7276006"></rect>
                <rect id="Rectangle" fill="#D6DBE2" x="14.9820208" y="126.894036" width="124.872725" height="3.91705964"></rect>
                <ellipse id="Oval" fill="#FF5252" cx="17.6581871" cy="128.791401" rx="1" ry="1"></ellipse>
                <ellipse id="Oval" fill="#FFFF00" cx="20.2792263" cy="128.791401" rx="1" ry="1"></ellipse>
                <ellipse id="Oval" fill="#69F0AE" cx="22.9027714" cy="128.791401" rx="1" ry="1"></ellipse>
                <g id="Group" opacity="0.8" transform="translate(0.000000, 202.771151)">
                    <path d="M149.975566,14.7195562 C142.302887,15.2987517 10.5392841,15.0665742 5.93367206,14.7195562 C-0.102736721,11.8210818 1.35525272e-20,0.576699029 1.35525272e-20,0.576699029 L60.4267321,0.174757282 L60.6296998,3.59750347 L86.4993072,3.59750347 L87.5016166,0.576699029 L154.475935,0.576699029 C154.475935,0.576699029 155.806501,10.8948682 149.975566,14.7195562 Z" id="Path"></path>
                </g>
                <g id="Group-2" transform="translate(108.000000, 0.000000)">
                    <rect id="Rectangle" fill-opacity="0.134369339" fill="#54565A" x="0" y="0" width="106" height="105"></rect>
                    <g id="undraw_transfer_files_6tns" transform="translate(38.000000, 24.000000)">
                        <g id="Group" opacity="0.5" fill="url(#linearGradient-1)">
                            <rect id="Rectangle" x="0" y="0" width="48.5974027" height="67.8403133"></rect>
                        </g>
                        <rect id="Rectangle" fill="#FFFFFF" x="0.61902746" y="0.499738903" width="47.3608467" height="66.3410966"></rect>
                        <rect id="Rectangle" fill="#E0E0E0" x="8.79228833" y="24.3645431" width="31.6183638" height="1.21754569"></rect>
                        <rect id="Rectangle" fill="#E0E0E0" x="9.06058352" y="28.6289817" width="31.3500686" height="1.21754569"></rect>
                        <rect id="Rectangle" fill="#E0E0E0" x="12.0747826" y="32.8934204" width="24.7191304" height="1.21754569"></rect>
                        <rect id="Rectangle" fill="#E0E0E0" x="9.06058352" y="37.1563446" width="30.7475286" height="1.21754569"></rect>
                        <rect id="Rectangle" fill="#E0E0E0" x="8.79228833" y="41.4207833" width="31.3500686" height="1.21754569"></rect>
                        <rect id="Rectangle" fill="#E0E0E0" x="8.79228833" y="45.6837076" width="31.3500686" height="1.21754569"></rect>
                        <rect id="Rectangle" fill="#E0E0E0" x="8.79228833" y="49.9481462" width="31.3500686" height="1.21754569"></rect>
                        <rect id="Rectangle" fill="#E0E0E0" x="8.79228833" y="54.2125849" width="31.3500686" height="1.21754569"></rect>
                        <rect id="Rectangle" fill="#6C63FF" x="9.22695652" y="9.94934726" width="8.44005721" height="7.30981723"></rect>
                        <rect id="Rectangle" fill="#E0E0E0" x="23.6954119" y="11.166893" width="15.6750343" height="1.21754569"></rect>
                        <rect id="Rectangle" fill="#3AD29F" opacity="0.3" x="23.6954119" y="15.4313316" width="15.6750343" height="1.21754569"></rect>
                    </g>
                    <g id="undraw_transfer_files_6tns" transform="translate(20.000000, 13.000000)">
                        <g id="Group" opacity="0.5" fill="url(#linearGradient-1)">
                            <rect id="Rectangle" x="0" y="0" width="48.5974027" height="67.8403133"></rect>
                        </g>
                        <rect id="Rectangle" fill="#FFFFFF" x="0.61902746" y="0.499738903" width="47.3608467" height="66.3410966"></rect>
                        <rect id="Rectangle" fill="#E0E0E0" x="8.79228833" y="24.3645431" width="31.6183638" height="1.21754569"></rect>
                        <rect id="Rectangle" fill="#E0E0E0" x="9.06058352" y="28.6289817" width="31.3500686" height="1.21754569"></rect>
                        <rect id="Rectangle" fill="#E0E0E0" x="12.0747826" y="32.8934204" width="24.7191304" height="1.21754569"></rect>
                        <rect id="Rectangle" fill="#E0E0E0" x="9.06058352" y="37.1563446" width="30.7475286" height="1.21754569"></rect>
                        <rect id="Rectangle" fill="#E0E0E0" x="8.79228833" y="41.4207833" width="31.3500686" height="1.21754569"></rect>
                        <rect id="Rectangle" fill="#E0E0E0" x="8.79228833" y="45.6837076" width="31.3500686" height="1.21754569"></rect>
                        <rect id="Rectangle" fill="#E0E0E0" x="8.79228833" y="49.9481462" width="31.3500686" height="1.21754569"></rect>
                        <rect id="Rectangle" fill="#E0E0E0" x="8.79228833" y="54.2125849" width="31.3500686" height="1.21754569"></rect>
                        <rect id="Rectangle" fill="#4291EB" x="9.22695652" y="9.94934726" width="8.44005721" height="7.30981723"></rect>
                        <rect id="Rectangle" fill="#E0E0E0" x="23.6954119" y="11.166893" width="15.6750343" height="1.21754569"></rect>
                        <rect id="Rectangle" fill="#3AD29F" opacity="0.3" x="23.6954119" y="15.4313316" width="15.6750343" height="1.21754569"></rect>
                    </g>
                </g>
                <path d="M153.493672,204.254092 L87.8273672,204.254092 C88.3551146,204.846395 88.4817087,205.693439 88.15006,206.413237 C87.8184113,207.133034 87.091187,207.589576 86.2963395,207.576976 L61.2386028,207.576976 C60.4437552,207.589576 59.716531,207.133034 59.3848823,206.413237 C59.0532336,205.693439 59.1798277,204.846395 59.7075751,204.254092 L0.909489755,204.254092 C0.909489755,204.254092 0.809364896,214.020527 6.77060046,216.537032 C11.3185797,216.839112 141.47097,217.036338 149.04843,216.537032 C154.809203,213.214147 153.493672,204.254092 153.493672,204.254092 Z" id="Path" fill="#ADB1B8"></path>
                <ellipse id="Oval" fill="#E0E0E0" cx="14.5510277" cy="206.366158" rx="1" ry="1"></ellipse>
                <ellipse id="Oval" fill="#E0E0E0" cx="16.9766166" cy="206.366158" rx="1" ry="1"></ellipse>
                <ellipse id="Oval" fill="#E0E0E0" cx="19.4022055" cy="206.366158" rx="1" ry="1"></ellipse>
                <path id="Path" d="M59.6379908,107.877654 L59.6379908,105.127654 L60.1379908,105.127654 L60.1379908,107.877654 L63.1379908,107.877654 L59.8879908,114.877654 L56.6379908,107.877654 L59.6379908,107.877654 Z M60.1379908,102.127654 L59.6379908,102.127654 L59.6379908,99.1276545 L60.1379908,99.1276545 L60.1379908,102.127654 Z M60.1379908,96.1276545 L59.6379908,96.1276545 L59.6379908,93.1276545 L60.1379908,93.1276545 L60.1379908,96.1276545 Z M60.1379908,90.1276545 L59.6379908,90.1276545 L59.6379908,87.1276545 L60.1379908,87.1276545 L60.1379908,90.1276545 Z M60.1379908,84.1276545 L59.6379908,84.1276545 L59.6379908,81.1276545 L60.1379908,81.1276545 L60.1379908,84.1276545 Z M60.1379908,78.1276545 L59.6379908,78.1276545 L59.6379908,75.1276545 L60.1379908,75.1276545 L60.1379908,78.1276545 Z M60.1379908,72.1276545 L59.6379908,72.1276545 L59.6379908,69.1276545 L60.1379908,69.1276545 L60.1379908,72.1276545 Z M60.1379908,66.1276545 L59.6379908,66.1276545 L59.6379908,63.1276545 L60.1379908,63.1276545 L60.1379908,66.1276545 Z M62.5708772,63.0605409 L62.5708772,62.5605409 L65.5708772,62.5605409 L65.5708772,63.0605409 L62.5708772,63.0605409 Z M68.5708772,63.0605409 L68.5708772,62.5605409 L71.5708772,62.5605409 L71.5708772,63.0605409 L68.5708772,63.0605409 Z M74.5708772,63.0605409 L74.5708772,62.5605409 L77.5708772,62.5605409 L77.5708772,63.0605409 L74.5708772,63.0605409 Z M80.5708772,63.0605409 L80.5708772,62.5605409 L83.5708772,62.5605409 L83.5708772,63.0605409 L80.5708772,63.0605409 Z M86.5708772,63.0605409 L86.5708772,62.5605409 L89.5708772,62.5605409 L89.5708772,63.0605409 L86.5708772,63.0605409 Z M92.5708772,63.0605409 L92.5708772,62.5605409 L95.5708772,62.5605409 L95.5708772,63.0605409 L92.5708772,63.0605409 Z M98.5708772,63.0605409 L98.5708772,62.5605409 L101.570877,62.5605409 L101.570877,63.0605409 L98.5708772,63.0605409 Z" fill="#3AD29F" fill-rule="nonzero"></path>
                <path id="Path" d="M46.3573903,92.1494992 L46.3573903,89.3994992 L46.8573903,89.3994992 L46.8573903,92.1494992 L49.8573903,92.1494992 L46.6073903,99.1494992 L43.3573903,92.1494992 L46.3573903,92.1494992 Z M46.8573903,86.3994992 L46.3573903,86.3994992 L46.3573903,83.3994992 L46.8573903,83.3994992 L46.8573903,86.3994992 Z M46.8573903,80.3994992 L46.3573903,80.3994992 L46.3573903,77.3994992 L46.8573903,77.3994992 L46.8573903,80.3994992 Z M46.8573903,74.3994992 L46.3573903,74.3994992 L46.3573903,71.3994992 L46.8573903,71.3994992 L46.8573903,74.3994992 Z M46.8573903,68.3994992 L46.3573903,68.3994992 L46.3573903,65.3994992 L46.8573903,65.3994992 L46.8573903,68.3994992 Z M46.8573903,62.3994992 L46.3573903,62.3994992 L46.3573903,59.3994992 L46.8573903,59.3994992 L46.8573903,62.3994992 Z M46.8573903,56.3994992 L46.3573903,56.3994992 L46.3573903,53.3994992 L46.8573903,53.3994992 L46.8573903,56.3994992 Z M46.8573903,50.3994992 L46.3573903,50.3994992 L46.3573903,47.3994992 L46.8573903,47.3994992 L46.8573903,50.3994992 Z M49.2902767,47.3323856 L49.2902767,46.8323856 L52.2902767,46.8323856 L52.2902767,47.3323856 L49.2902767,47.3323856 Z M55.2902767,47.3323856 L55.2902767,46.8323856 L58.2902767,46.8323856 L58.2902767,47.3323856 L55.2902767,47.3323856 Z M61.2902767,47.3323856 L61.2902767,46.8323856 L64.2902767,46.8323856 L64.2902767,47.3323856 L61.2902767,47.3323856 Z M67.2902767,47.3323856 L67.2902767,46.8323856 L70.2902767,46.8323856 L70.2902767,47.3323856 L67.2902767,47.3323856 Z M73.2902767,47.3323856 L73.2902767,46.8323856 L76.2902767,46.8323856 L76.2902767,47.3323856 L73.2902767,47.3323856 Z M79.2902767,47.3323856 L79.2902767,46.8323856 L82.2902767,46.8323856 L82.2902767,47.3323856 L79.2902767,47.3323856 Z M85.2902767,47.3323856 L85.2902767,46.8323856 L88.2902767,46.8323856 L88.2902767,47.3323856 L85.2902767,47.3323856 Z M91.2902767,47.3323856 L91.2902767,46.8323856 L94.2902767,46.8323856 L94.2902767,47.3323856 L91.2902767,47.3323856 Z M97.2902767,47.3323856 L97.2902767,46.8323856 L100.290277,46.8323856 L100.290277,47.3323856 L97.2902767,47.3323856 Z" fill="#3AD29F" fill-rule="nonzero"></path>
            </g>
        </g>
    </g>
</svg>