<?xml version="1.0" encoding="UTF-8"?>
<svg width="73px" height="68px" viewBox="0 0 73 68" version="1.1" xmlns="http://www.w3.org/2000/svg" xmlns:xlink="http://www.w3.org/1999/xlink">
    <!-- Generator: Sketch 52.5 (67469) - http://www.bohemiancoding.com/sketch -->
    <title>Group 4</title>
    <desc>Created with Sketch.</desc>
    <g id="长报告" stroke="none" stroke-width="1" fill="none" fill-rule="evenodd">
        <g id="报告" transform="translate(-684.000000, -506.000000)">
            <g id="Group-4" transform="translate(684.000000, 506.000000)">
                <ellipse id="Oval" fill="#FFFFFF" cx="29.8034436" cy="29.6185544" rx="29.4997881" ry="29.45917"></ellipse>
                <rect id="Rectangle" fill="#E5E8ED" x="50.8392857" y="41.9622642" width="22.1607143" height="26.0377358"></rect>
                <rect id="Rectangle" fill="#F9F9F9" x="49.5357143" y="40.6603774" width="22.1607143" height="26.0377358"></rect>
                <path d="M52.7946429,45.1131819 L67.1339286,45.1131819" id="Line-2" stroke="#ADB1B8" stroke-width="1.3" stroke-linecap="square"></path>
                <path d="M52.7946429,47.7169555 L61.9196429,47.7169555" id="Line-2-Copy" stroke="#ADB1B8" stroke-width="1.3" stroke-linecap="square"></path>
                <path d="M52.7946429,54.2263894 L67.1339286,54.2263894" id="Line-2-Copy-2" stroke="#ADB1B8" stroke-width="1.3" stroke-linecap="square"></path>
                <path d="M52.7946429,56.830163 L67.1339286,56.830163" id="Line-2-Copy-3" stroke="#ADB1B8" stroke-width="1.3" stroke-linecap="square"></path>
                <path d="M52.7946429,59.4339366 L67.1339286,59.4339366" id="Line-2-Copy-4" stroke="#ADB1B8" stroke-width="1.3" stroke-linecap="square"></path>
                <path d="M52.7946429,62.0377102 L67.1339286,62.0377102" id="Line-2-Copy-5" stroke="#ADB1B8" stroke-width="1.3" stroke-linecap="square"></path>
                <path d="M29.8294483,59.1945846 C35.5905723,59.2020169 41.2265936,57.5167898 46.0356083,54.3487797 C44.9486098,48.4174729 40.8112541,48.0772797 40.8112541,48.0772797 L18.0102896,48.0772797 C18.0102896,48.0772797 14.1095771,48.3966977 12.8873539,53.8553698 C17.8472019,57.339329 23.7655006,59.2044507 29.8294483,59.1945846 Z" id="Path" fill="#6DB2F7"></path>
                <ellipse id="Oval" fill="#F55F44" cx="29.5173913" cy="28.9978966" rx="14.2402009" ry="14.2205937"></ellipse>
                <path d="M24.922352,40.8423319 L34.0474187,40.8423319 L34.0474187,48.1318145 C34.0474187,50.6474455 32.0052851,52.6867673 29.4861856,52.6867673 C26.9670861,52.6867673 24.9249525,50.6474455 24.9249525,48.1318145 L24.9249525,40.8423319 L24.922352,40.8423319 Z" id="Path" fill="#000000" opacity="0.1"></path>
                <path d="M25.7935111,40.5047357 L33.1762596,40.5047357 C33.4073054,40.5047357 33.6288881,40.5963919 33.7922621,40.7595409 C33.9556361,40.92269 34.0474187,41.1439677 34.0474187,41.3746953 L34.0474187,47.7942182 C34.0474187,49.0022668 33.5668616,50.1608369 32.7114645,51.0150562 C31.8560673,51.8692756 30.6958998,52.349171 29.4861856,52.349171 C28.2764714,52.349171 27.1163039,51.8692756 26.2609067,51.0150562 C25.4055096,50.1608369 24.9249525,49.0022668 24.9249525,47.7942182 L24.9249525,41.3746953 C24.9249525,40.8942299 25.3149837,40.5047357 25.7961116,40.5047357 L25.7935111,40.5047357 Z" id="Path" fill="#FDA57D"></path>
                <path d="M24.9405554,44.283217 C27.8813522,45.3808312 31.1186084,45.3900441 34.065622,44.309186 L34.065622,43.1899245 L24.9405554,43.1899245 L24.9405554,44.283217 Z" id="Path" fill="#000000" opacity="0.1"></path>
                <ellipse id="Oval" fill="#FDA57D" cx="29.5173913" cy="31.8337053" rx="13.0777886" ry="13.0597819"></ellipse>
                <ellipse id="Oval" fill="#F55F44" cx="29.499188" cy="14.5331948" rx="5.26336134" ry="5.25611425"></ellipse>
                <ellipse id="Oval" fill="#F55F44" cx="29.499188" cy="9.35758431" rx="3.45603124" ry="3.45127265"></ellipse>
                <path d="M27.215971,17.4157476 C24.6508479,16.266714 23.4428228,13.3074113 24.4724699,10.6949849 C24.4360632,10.767698 24.3996566,10.8430079 24.3658504,10.9183178 C23.596124,12.6319294 23.8003288,14.6254505 24.9015429,16.147941 C26.0027569,17.6704316 27.8336797,18.490589 29.7046202,18.299468 C31.5755607,18.108347 33.2022786,16.9349834 33.9720049,15.2213719 C34.0058111,15.1460619 34.0370168,15.070752 34.0682225,14.9928451 C32.7990321,17.498783 29.7814498,18.5657765 27.215971,17.4157476 Z" id="Path" fill="#F55F44"></path>
                <path d="M20.2050904,19.9555103 C20.2050904,19.9555103 25.7154969,31.1221562 41.2689377,24.6299202 L37.6490765,18.9608998 L31.2337048,16.6600513 L20.2050904,19.9555103 Z" id="Path" fill="#000000" opacity="0.1"></path>
                <path d="M20.2050904,19.7893091 C20.2050904,19.7893091 25.7154969,30.955955 41.2689377,24.463719 L37.6490765,18.7946985 L31.2337048,16.4938501 L20.2050904,19.7893091 Z" id="Path" fill="#F55F44"></path>
                <path d="M24.4516661,15.7225725 C27.8426506,15.4562416 31.2493425,15.4562416 34.640327,15.7225725 C34.640327,15.7225725 27.1145524,16.4211371 24.4516661,15.7225725 Z" id="Path" fill="#333333"></path>
                <path d="M30.2897324,5.69596321 C30.0282605,5.68638457 29.7665438,5.7064219 29.5095899,5.75569178 L29.7098265,5.75569178 C31.4723999,5.81199663 32.909356,7.18541063 33.042923,8.94139898 C33.17649,10.6973873 31.9637559,12.271792 30.2299214,12.5933147 C32.1371985,12.6105253 33.6973233,11.0804527 33.7145578,9.1758017 C33.7317922,7.27115073 32.1996099,5.713174 30.2923328,5.69596321 L30.2897324,5.69596321 Z" id="Path" fill="#F55F44"></path>
                <ellipse id="Oval" fill="#FDA57D" cx="16.4370022" cy="31.8207208" rx="1.21702229" ry="2.27747638"></ellipse>
                <ellipse id="Oval" fill="#FDA57D" cx="42.5951799" cy="31.8207208" rx="1.21702229" ry="2.27747638"></ellipse>
                <polygon id="Path" fill="#F55F44" points="19.3807399 20.1191147 21.9318058 18.8050861 22.5065108 20.9111675 20.9436253 21.9732973"></polygon>
            </g>
        </g>
    </g>
</svg>