<?xml version="1.0" encoding="UTF-8"?>
<svg width="60px" height="60px" viewBox="0 0 60 60" version="1.1" xmlns="http://www.w3.org/2000/svg" xmlns:xlink="http://www.w3.org/1999/xlink">
    <!-- Generator: Sketch 52.5 (67469) - http://www.bohemiancoding.com/sketch -->
    <title>Group 6</title>
    <desc>Created with Sketch.</desc>
    <g id="长报告" stroke="none" stroke-width="1" fill="none" fill-rule="evenodd">
        <g id="报告" transform="translate(-1064.000000, -507.000000)">
            <g id="Group-6" transform="translate(1064.000000, 507.000000)">
                <ellipse id="Oval" fill="#FFFFFF" cx="30.327855" cy="29.6608367" rx="29.5173579" ry="29.3683308"></ellipse>
                <path d="M46.5670855,32.5552121 C46.5670855,42.3256705 39.512999,47.1332331 30.3512732,47.1332331 C21.1895474,47.1332331 13.3964862,42.3256705 13.3964862,32.5552121 C13.3964862,22.7847536 20.8226621,14.8653492 29.9817858,14.8653492 C39.1409096,14.8653492 46.5670855,22.776987 46.5670855,32.5552121 Z" id="Path" fill="#333333"></path>
                <path d="M30.3512732,59.1456674 C36.1202574,59.1556184 41.7645204,57.4754805 46.5800956,54.3148048 C45.4924497,48.4017876 41.3526298,48.0626434 41.3526298,48.0626434 L18.5276771,48.0626434 C18.5276771,48.0626434 14.6246414,48.3810765 13.4016902,53.8229163 C18.3637664,57.2956227 24.2846016,59.1549683 30.3512732,59.1456674 Z" id="Path" fill="#6DB2F7"></path>
                <path d="M25.4438563,40.8422384 L34.5743645,40.8422384 L34.5743578,48.1092434 C34.5764367,49.3167085 34.095081,50.4752765 33.2366963,51.3288415 C32.3783116,52.1824066 31.2135909,52.6606727 30,52.6579173 C28.7895653,52.6579173 27.6287068,52.1795017 26.7728002,51.3279164 C25.9168936,50.4763311 25.4360503,49.3213335 25.4360503,48.11701 L25.4360503,40.8422384 L25.4438563,40.8422384 Z" id="Path" fill="#000000" opacity="0.1"></path>
                <path d="M26.3129323,40.5134498 L33.7000778,40.5134498 C34.1814923,40.5134498 34.5717558,40.9017429 34.5717558,41.3807268 L34.5717558,47.7804548 C34.5717576,48.9861251 34.0898429,50.1423012 33.2322472,50.9941101 C32.3746515,51.8459191 31.2117867,52.3234242 30,52.321362 C28.7895653,52.321362 27.6287068,51.8429464 26.7728002,50.9913611 C25.9168936,50.1397758 25.4360503,48.9847783 25.4360503,47.7804548 L25.4360503,41.3781379 C25.4360503,41.1481218 25.5278875,40.9275265 25.6913588,40.7648805 C25.8548302,40.6022345 26.0765449,40.5108609 26.3077282,40.5108609 L26.3129323,40.5134498 Z" id="Path" fill="#FDA57D"></path>
                <path d="M25.4620705,44.2802799 C28.4046189,45.3745096 31.6438031,45.383694 34.592572,44.3061688 L34.592572,43.1903586 L25.4620705,43.1903586 L25.4620705,44.2802799 Z" id="Path" fill="#000000" opacity="0.1"></path>
                <ellipse id="Oval" fill="#FDA57D" cx="30.0416324" cy="31.8665682" rx="13.0855777" ry="13.0195112"></ellipse>
                <path d="M14.9603025,32.7183119 C14.9603025,32.7183119 23.109841,31.734535 29.2714333,23.8746749 C29.2714333,23.8746749 37.4209719,32.8011563 43.0985878,31.8173794 C43.0985878,31.8173794 46.3901479,28.3767489 43.0985878,24.9387074 C39.8070277,21.5006658 37.2544423,17.1591028 32.8934505,17.7312468 C28.5324586,18.3033908 23.1800956,18.549335 20.8773046,20.5971444 C18.5745135,22.6449538 14.9603025,32.7183119 14.9603025,32.7183119 Z" id="Path" fill="#000000" opacity="0.1"></path>
                <path d="M14.9603025,32.5552121 C14.9603025,32.5552121 23.109841,31.5714351 29.2714333,23.7115751 C29.2714333,23.7115751 37.4209719,32.6380564 43.0985878,31.6542795 C43.0985878,31.6542795 46.3901479,28.2136491 43.0985878,24.7756075 C39.8070277,21.337566 37.2544423,16.996003 32.8934505,17.5681469 C28.5324586,18.1402909 23.1905037,18.3758796 20.8877127,20.446989 C18.5849216,22.5180983 14.9603025,32.5552121 14.9603025,32.5552121 Z" id="Path" fill="#333333"></path>
                <ellipse id="Oval" fill="#FDA57D" cx="16.9508507" cy="31.8562127" rx="1.21774714" ry="2.27045364"></ellipse>
                <ellipse id="Oval" fill="#FDA57D" cx="43.124608" cy="31.8562127" rx="1.21774714" ry="2.27045364"></ellipse>
            </g>
        </g>
    </g>
</svg>