<?xml version="1.0" encoding="UTF-8"?>
<svg width="68px" height="66px" viewBox="0 0 68 66" version="1.1" xmlns="http://www.w3.org/2000/svg" xmlns:xlink="http://www.w3.org/1999/xlink">
    <!-- Generator: Sketch 52.5 (67469) - http://www.bohemiancoding.com/sketch -->
    <title>undraw_files1_9ool</title>
    <desc>Created with Sketch.</desc>
    <defs>
        <linearGradient x1="50.0009871%" y1="100%" x2="50.0009871%" y2="0%" id="linearGradient-1">
            <stop stop-color="#808080" stop-opacity="0.25" offset="1%"></stop>
            <stop stop-color="#808080" stop-opacity="0.12" offset="54%"></stop>
            <stop stop-color="#808080" stop-opacity="0.1" offset="100%"></stop>
        </linearGradient>
        <linearGradient x1="50%" y1="100%" x2="50%" y2="0%" id="linearGradient-2">
            <stop stop-color="#B3B3B3" stop-opacity="0.25" offset="0%"></stop>
            <stop stop-color="#B3B3B3" stop-opacity="0.1" offset="54%"></stop>
            <stop stop-color="#B3B3B3" stop-opacity="0.05" offset="100%"></stop>
        </linearGradient>
        <linearGradient x1="50%" y1="100.011179%" x2="50%" y2="0%" id="linearGradient-3">
            <stop stop-color="#B3B3B3" stop-opacity="0.25" offset="0%"></stop>
            <stop stop-color="#B3B3B3" stop-opacity="0.1" offset="54%"></stop>
            <stop stop-color="#B3B3B3" stop-opacity="0.05" offset="100%"></stop>
        </linearGradient>
        <linearGradient x1="49.9990129%" y1="100%" x2="49.9990129%" y2="0%" id="linearGradient-4">
            <stop stop-color="#808080" stop-opacity="0.25" offset="1%"></stop>
            <stop stop-color="#808080" stop-opacity="0.12" offset="54%"></stop>
            <stop stop-color="#808080" stop-opacity="0.1" offset="100%"></stop>
        </linearGradient>
        <linearGradient x1="49.9938748%" y1="100%" x2="49.9938748%" y2="0%" id="linearGradient-5">
            <stop stop-color="#B3B3B3" stop-opacity="0.25" offset="0%"></stop>
            <stop stop-color="#B3B3B3" stop-opacity="0.1" offset="54%"></stop>
            <stop stop-color="#B3B3B3" stop-opacity="0.05" offset="100%"></stop>
        </linearGradient>
    </defs>
    <g id="长报告" stroke="none" stroke-width="1" fill="none" fill-rule="evenodd">
        <g id="报告" transform="translate(-871.000000, -504.000000)">
            <g id="undraw_files1_9ool" transform="translate(871.000000, 504.000000)">
                <polygon id="Path" fill="url(#linearGradient-1)" points="42.3128747 65.9339153 0 65.9339153 0 16.0950193 6.39316953 8.90449294 42.3128747 8.90449294"></polygon>
                <polygon id="Path" fill="#FAFAFA" points="41.6596069 64.4182028 0.747665848 64.4182028 0.747665848 16.4839024 6.92864865 9.5678819 41.6596069 9.5678819"></polygon>
                <rect id="Rectangle" fill="#E0E0E0" x="4.74162162" y="15.4883954" width="19.9313514" height="3.41014121"></rect>
                <rect id="Rectangle" fill="#E0E0E0" x="4.7817199" y="24.8198973" width="14.6057985" height="3.41014121"></rect>
                <rect id="Rectangle" fill="#6DB2F7" x="4.7817199" y="38.8400257" width="32.7619656" height="12.5044159"></rect>
                <rect id="Rectangle" fill="#F5F5F5" x="30.119656" y="15.5358408" width="7.42402948" height="3.41014121"></rect>
                <rect id="Rectangle" fill="#F5F5F5" x="30.119656" y="20.841258" width="7.42402948" height="3.41014121"></rect>
                <polygon id="Path" fill="url(#linearGradient-2)" points="7.56604423 9.5678819 7.56604423 17.1464442 0.747665848 17.1464442 0.747665848 16.4839024 6.91194103 9.5678819"></polygon>
                <polygon id="Path" fill="#EEEEEE" points="0.730958231 16.4839024 6.91194103 9.5678819 6.91194103 16.4839024"></polygon>
                <polygon id="Path" fill="url(#linearGradient-1)" points="55.2963636 61.1969961 12.9834889 61.1969961 12.9834889 11.3581001 19.3766585 4.16842105 55.2963636 4.16842105"></polygon>
                <polygon id="Path" fill="#FAFAFA" points="54.6430958 59.6812837 13.7311548 59.6812837 13.7311548 11.7469833 19.9121376 4.83096277 54.6430958 4.83096277"></polygon>
                <rect id="Rectangle" fill="#E0E0E0" x="17.7251106" y="10.7523235" width="19.9313514" height="3.41014121"></rect>
                <rect id="Rectangle" fill="#E0E0E0" x="17.7652088" y="20.0829782" width="14.6057985" height="3.41014121"></rect>
                <rect id="Rectangle" fill="#6DB2F7" x="17.7652088" y="34.1039538" width="32.7619656" height="12.5044159"></rect>
                <rect id="Rectangle" fill="#F5F5F5" x="43.103145" y="10.7997689" width="7.42402948" height="3.41014121"></rect>
                <rect id="Rectangle" fill="#F5F5F5" x="43.103145" y="16.1043389" width="7.42402948" height="3.41014121"></rect>
                <polygon id="Path" fill="url(#linearGradient-3)" points="20.5495332 4.83096277 20.5495332 12.409525 13.7311548 12.409525 13.7311548 11.7469833 19.89543 4.83096277"></polygon>
                <polygon id="Path" fill="#EEEEEE" points="13.7144472 11.7469833 19.89543 4.83096277 19.89543 11.7469833"></polygon>
                <polygon id="Path" fill="url(#linearGradient-4)" points="68 57.0294223 25.6871253 57.0294223 25.6871253 7.19052632 32.0794595 0 68 0"></polygon>
                <polygon id="Path" fill="#FFFFFF" points="67.3458968 55.5137099 26.4339558 55.5137099 26.4339558 7.57856226 32.615774 0.66338896 67.3458968 0.66338896"></polygon>
                <rect id="Rectangle" fill="#E0E0E0" x="30.4287469" y="6.58390244" width="19.9313514" height="3.41014121"></rect>
                <rect id="Rectangle" fill="#E0E0E0" x="30.4688452" y="15.9154044" width="14.6057985" height="3.41014121"></rect>
                <rect id="Rectangle" fill="#6DB2F7" x="30.4688452" y="29.9355327" width="32.7619656" height="12.5044159"></rect>
                <rect id="Rectangle" fill="#E0E0E0" x="55.8067813" y="6.63134788" width="7.42402948" height="3.41014121"></rect>
                <rect id="Rectangle" fill="#E0E0E0" x="55.8067813" y="11.9359178" width="7.42402948" height="3.41014121"></rect>
                <rect id="Rectangle" fill="#E0E0E0" x="55.8067813" y="17.241335" width="7.42402948" height="3.41014121"></rect>
                <polygon id="Path" fill="url(#linearGradient-5)" points="33.2531695 0.66338896 33.2531695 8.24195122 26.4339558 8.24195122 26.4339558 7.57856226 32.5990663 0.66338896"></polygon>
                <polygon id="Path" fill="#EEEEEE" points="26.4172482 7.57856226 32.5990663 0.66338896 32.5990663 7.57856226"></polygon>
            </g>
        </g>
    </g>
</svg>