<?xml version="1.0" encoding="UTF-8"?>
<svg width="271px" height="210px" viewBox="0 0 271 210" version="1.1" xmlns="http://www.w3.org/2000/svg" xmlns:xlink="http://www.w3.org/1999/xlink">
    <!-- Generator: Sketch 52.5 (67469) - http://www.bohemiancoding.com/sketch -->
    <title>undraw_report_mx0a</title>
    <desc>Created with Sketch.</desc>
    <defs>
        <linearGradient x1="49.9963627%" y1="100.004109%" x2="49.9963627%" y2="7.92274891e-06%" id="linearGradient-1">
            <stop stop-color="#808080" stop-opacity="0.25" offset="0%"></stop>
            <stop stop-color="#808080" stop-opacity="0.12" offset="54%"></stop>
            <stop stop-color="#808080" stop-opacity="0.1" offset="100%"></stop>
        </linearGradient>
        <linearGradient x1="49.9850541%" y1="99.9893978%" x2="49.9850541%" y2="0.00591134653%" id="linearGradient-2">
            <stop stop-color="#808080" stop-opacity="0.25" offset="0%"></stop>
            <stop stop-color="#808080" stop-opacity="0.12" offset="54%"></stop>
            <stop stop-color="#808080" stop-opacity="0.1" offset="100%"></stop>
        </linearGradient>
    </defs>
    <g id="长报告" stroke="none" stroke-width="1" fill="none" fill-rule="evenodd">
        <g id="报告" transform="translate(-403.000000, -102.000000)">
            <g id="undraw_report_mx0a" transform="translate(403.000000, 102.000000)">
                <path d="M58.7133272,0.408472554 C50.0072643,0.0877088305 40.9129852,-0.137828162 33.0409612,3.59606205 C25.1689372,7.32995227 19.0827079,16.3764916 21.7225786,24.6937947 C22.5841682,27.4052506 24.2622643,29.7683771 25.6773752,32.2367542 C32.7529298,44.5811456 33.0810351,60.5366348 26.5214325,73.1642005 C21.4721165,82.8848449 12.9138262,90.2824582 6.75245841,99.3390215 C0.591090573,108.395585 -2.91036969,120.947971 3.15081331,130.072196 C7.30097043,136.31957 15.0026802,139.359308 22.4639464,140.096062 C29.9252126,140.832816 37.4290573,139.672554 44.9228835,139.374344 C59.5052847,138.813706 74.0255041,141.561162 87.3962477,147.410979 C105.802708,155.485203 121.659464,169.298091 141.040222,174.628282 C143.367015,175.267303 145.799002,175.783532 148.178392,175.35 C152.398678,174.580668 155.466839,171.089857 158.770434,168.333294 C169.317394,159.594988 183.919335,157.963604 197.609593,157.557637 C211.299852,157.151671 225.55866,157.464916 237.933993,151.583413 C248.738928,146.448687 257.056774,136.895943 262.228817,126.105251 C267.40086,115.314558 269.647505,103.323508 270.494067,91.3825776 C270.994991,84.2756563 270.977458,76.9381862 268.435268,70.2848449 C265.577495,62.8045346 259.781802,56.847852 253.703087,51.6404535 C247.351368,46.197494 240.428595,41.2657518 232.586627,38.3287589 C223.219344,34.8204057 213.050582,34.3192124 203.077181,33.4872315 C182.625599,31.7782479 162.333256,28.5177995 142.375185,23.7340095 C123.432736,19.203222 102.634362,14.2539379 85.3825323,5.02446301 C76.7240573,0.390930788 68.4738355,0.759307876 58.7133272,0.408472554 Z" id="Path" fill="#C2E4FF" opacity="0.721186756"></path>
                <g id="Group" opacity="0.1" transform="translate(174.071165, 114.522673)">
                    <path d="M4.72872458,43.5211217 C4.72872458,43.5211217 5.61536044,31.0890215 12.6082625,24.3103819 C15.5604134,21.4861237 17.5168261,17.7796056 18.183549,13.7477327 C18.484577,11.831071 18.6103285,9.89094082 18.5592421,7.95143198" id="Path" fill="#2D6FC4"></path>
                    <path d="M22.9398244,3.65369928 C22.4263771,5.02696897 18.4565527,8.07923628 18.4565527,8.07923628 C18.4565527,8.07923628 17.4547043,3.17004773 17.9731608,1.79677804 C18.4856602,0.424535044 20.0129484,-0.272201715 21.3844547,0.240572909 C22.7559609,0.753347534 23.4523236,2.28145624 22.9398244,3.65369928 Z" id="Path" fill="#6C63FF"></path>
                    <path d="M24.2071627,12.7929594 C23.0299908,13.6650358 18.0407856,14.0684964 18.0407856,14.0684964 C18.0407856,14.0684964 19.869159,9.4048926 21.0463309,8.53031026 C22.222844,7.70487052 23.8423575,7.96691739 24.6988656,9.121312 C25.5553737,10.2757066 25.3373554,11.9025834 24.2071627,12.7904535 L24.2071627,12.7929594 Z" id="Path" fill="#6C63FF"></path>
                    <path d="M19.1753789,25.7162291 C17.7176895,25.876611 13.2068669,23.7114558 13.2068669,23.7114558 C13.2068669,23.7114558 17.139122,20.6090692 18.5943068,20.4536993 C19.9988783,20.3765761 21.2189114,21.4109632 21.3733768,22.8098928 C21.5278422,24.2088224 20.5629043,25.4847263 19.1753789,25.7162291 Z" id="Path" fill="#6C63FF"></path>
                    <path d="M13.166793,34.6374702 C11.7591959,35.0409308 6.94531423,33.6626492 6.94531423,33.6626492 C6.94531423,33.6626492 10.2964972,29.9412888 11.7040943,29.5378282 C12.6242997,29.2449635 13.6308762,29.4756062 14.3319816,30.1399711 C15.033087,30.8043359 15.317933,31.7974406 15.0756343,32.732687 C14.8333355,33.6679335 14.1021797,34.3975348 13.166793,34.6374702 Z" id="Path" fill="#6C63FF"></path>
                    <path d="M12.7259797,12.3844869 C13.3521349,13.7076372 17.5649076,16.4115752 17.5649076,16.4115752 C17.5649076,16.4115752 18.1459797,11.4372315 17.5173198,10.1115752 C16.8654494,8.83228372 15.3148081,8.30382571 14.0179953,8.91900663 C12.7211825,9.53418754 12.1486569,11.0698316 12.7259797,12.3844869 Z" id="Path" fill="#6C63FF"></path>
                    <path d="M5.83075786,22.9070406 C6.83260628,23.9821002 11.6540018,25.3027446 11.6540018,25.3027446 C11.6540018,25.3027446 10.7197782,20.3810263 9.72544362,19.3034606 C8.72958186,18.2335341 7.05640525,18.1710277 5.98357279,19.163672 C4.91074032,20.1563163 4.84240916,21.8301626 5.83075786,22.9070406 Z" id="Path" fill="#6C63FF"></path>
                    <path d="M0.533484288,34.05358 C1.32995379,35.2815036 5.86832717,37.3990453 5.86832717,37.3990453 C5.86832717,37.3990453 5.77816081,32.3871122 4.97918669,31.1616945 C4.1629318,29.9799947 2.55511299,29.6626131 1.35145074,30.4455835 C0.147788493,31.2285538 -0.214735646,32.8276241 0.533484288,34.05358 Z" id="Path" fill="#6C63FF"></path>
                    <path d="M22.9398244,3.65369928 C22.4263771,5.02696897 18.4565527,8.07923628 18.4565527,8.07923628 C18.4565527,8.07923628 17.4547043,3.17004773 17.9731608,1.79677804 C18.4856602,0.424535044 20.0129484,-0.272201715 21.3844547,0.240572909 C22.7559609,0.753347534 23.4523236,2.28145624 22.9398244,3.65369928 Z" id="Path" fill="#2D6FC4"></path>
                    <path d="M24.2071627,12.7929594 C23.0299908,13.6650358 18.0407856,14.0684964 18.0407856,14.0684964 C18.0407856,14.0684964 19.869159,9.4048926 21.0463309,8.53031026 C22.222844,7.70487052 23.8423575,7.96691739 24.6988656,9.121312 C25.5553737,10.2757066 25.3373554,11.9025834 24.2071627,12.7904535 L24.2071627,12.7929594 Z" id="Path" fill="#2D6FC4"></path>
                    <path d="M19.1753789,25.7162291 C17.7176895,25.876611 13.2068669,23.7114558 13.2068669,23.7114558 C13.2068669,23.7114558 17.139122,20.6090692 18.5943068,20.4536993 C19.9988783,20.3765761 21.2189114,21.4109632 21.3733768,22.8098928 C21.5278422,24.2088224 20.5629043,25.4847263 19.1753789,25.7162291 Z" id="Path" fill="#2D6FC4"></path>
                    <path d="M13.166793,34.6374702 C11.7591959,35.0409308 6.94531423,33.6626492 6.94531423,33.6626492 C6.94531423,33.6626492 10.2964972,29.9412888 11.7040943,29.5378282 C12.6242997,29.2449635 13.6308762,29.4756062 14.3319816,30.1399711 C15.033087,30.8043359 15.317933,31.7974406 15.0756343,32.732687 C14.8333355,33.6679335 14.1021797,34.3975348 13.166793,34.6374702 Z" id="Path" fill="#2D6FC4"></path>
                    <path d="M12.7259797,12.3844869 C13.3521349,13.7076372 17.5649076,16.4115752 17.5649076,16.4115752 C17.5649076,16.4115752 18.1459797,11.4372315 17.5173198,10.1115752 C16.8654494,8.83228372 15.3148081,8.30382571 14.0179953,8.91900663 C12.7211825,9.53418754 12.1486569,11.0698316 12.7259797,12.3844869 Z" id="Path" fill="#2D6FC4"></path>
                    <path d="M5.83075786,22.9070406 C6.83260628,23.9821002 11.6540018,25.3027446 11.6540018,25.3027446 C11.6540018,25.3027446 10.7197782,20.3810263 9.72544362,19.3034606 C8.72958186,18.2335341 7.05640525,18.1710277 5.98357279,19.163672 C4.91074032,20.1563163 4.84240916,21.8301626 5.83075786,22.9070406 Z" id="Path" fill="#2D6FC4"></path>
                    <path d="M0.533484288,34.05358 C1.32995379,35.2815036 5.86832717,37.3990453 5.86832717,37.3990453 C5.86832717,37.3990453 5.77816081,32.3871122 4.97918669,31.1616945 C4.1629318,29.9799947 2.55511299,29.6626131 1.35145074,30.4455835 C0.147788493,31.2285538 -0.214735646,32.8276241 0.533484288,34.05358 Z" id="Path" fill="#6C63FF"></path>
                </g>
                <g id="Group" opacity="0.1" transform="translate(176.575786, 67.410501)">
                    <path d="M4.67863216,43.576253 C4.67863216,43.576253 5.56526802,31.1441527 12.5581701,24.3655131 C15.5092986,21.5404825 17.4655196,17.8343275 18.1334566,13.802864 C18.4368832,11.8864689 18.562649,9.94611771 18.5091497,8.00656325" id="Path" fill="#2D6FC4"></path>
                    <path d="M22.889732,3.70883055 C22.3888078,5.07959427 18.4089649,8.13186158 18.4089649,8.13186158 C18.4089649,8.13186158 17.4071165,3.22267303 17.9230684,1.85190931 C18.4355677,0.479666239 19.962856,-0.217070584 21.3343623,0.295704057 C22.7058686,0.808478699 23.4022313,2.33658748 22.889732,3.70883055 Z" id="Path" fill="#6C63FF"></path>
                    <path d="M24.1645841,12.8455847 C22.9899168,13.7201671 17.998207,14.1211217 17.998207,14.1211217 C17.998207,14.1211217 19.8265804,9.46002387 21.0037523,8.58544153 C21.7625254,7.98935564 22.7849418,7.85247321 23.6736549,8.2279915 C24.562368,8.6035098 25.1772244,9.4322081 25.2792694,10.3920255 C25.3813144,11.3518429 24.9544552,12.2914124 24.1645841,12.8455847 Z" id="Path" fill="#6C63FF"></path>
                    <path d="M19.1252865,25.7713604 C17.6701017,25.9317422 13.1592791,23.7665871 13.1592791,23.7665871 C13.1592791,23.7665871 17.0915342,20.6667064 18.546719,20.5088305 C19.49821,20.3864799 20.4415781,20.787718 21.0137639,21.5581266 C21.5859496,22.3285352 21.6977679,23.3480327 21.3061849,24.2242608 C20.914602,25.100489 20.0806528,25.6968724 19.1252865,25.7838902 L19.1252865,25.7713604 Z" id="Path" fill="#6C63FF"></path>
                    <path d="M13.1167006,34.6926014 C11.7091035,35.0960621 6.89522181,33.7177804 6.89522181,33.7177804 C6.89522181,33.7177804 10.2489094,29.99642 11.6540018,29.5904535 C13.05453,29.2085932 14.5016854,30.0240907 14.901285,31.4203546 C15.3008846,32.8166185 14.5044663,34.274899 13.1141959,34.6926014 L13.1167006,34.6926014 Z" id="Path" fill="#6C63FF"></path>
                    <path d="M12.6758872,12.4371122 C13.3020425,13.7627685 17.5173198,16.4667064 17.5173198,16.4667064 C17.5173198,16.4667064 18.0958872,11.4898568 17.469732,10.1667064 C17.0759774,9.29082466 16.2399738,8.69614373 15.2837959,8.61176753 C14.3276179,8.52739132 13.4004885,8.96648774 12.8595889,9.75989265 C12.3186892,10.5532976 12.2484332,11.5771908 12.6758872,12.4371122 Z" id="Path" fill="#6C63FF"></path>
                    <path d="M5.78066543,22.9596659 C6.78251386,24.0372315 11.606414,25.3553699 11.606414,25.3553699 C11.606414,25.3553699 10.6696858,20.4336516 9.6753512,19.3585919 C8.67239207,18.3268875 7.03030268,18.2831113 5.97385652,19.2599143 C4.91741036,20.2367173 4.83170524,21.8780334 5.78066543,22.9596659 Z" id="Path" fill="#6C63FF"></path>
                    <path d="M0.483391867,34.1087112 C1.28236599,35.3366348 5.81823475,37.4541766 5.81823475,37.4541766 C5.81823475,37.4541766 5.72806839,32.4422434 4.92909427,31.2168258 C4.42592112,30.3923783 3.51474075,29.9066114 2.55016405,29.9485747 C1.58558736,29.990538 0.719986765,30.5536026 0.290234542,31.4186365 C-0.139517682,32.2836703 -0.0655343584,33.3140256 0.483391867,34.1087112 Z" id="Path" fill="#6C63FF"></path>
                    <path d="M22.889732,3.70883055 C22.3888078,5.07959427 18.4089649,8.13186158 18.4089649,8.13186158 C18.4089649,8.13186158 17.4071165,3.22267303 17.9230684,1.85190931 C18.4355677,0.479666239 19.962856,-0.217070584 21.3343623,0.295704057 C22.7058686,0.808478699 23.4022313,2.33658748 22.889732,3.70883055 Z" id="Path" fill="#2D6FC4"></path>
                    <path d="M24.1645841,12.8455847 C22.9899168,13.7201671 17.998207,14.1211217 17.998207,14.1211217 C17.998207,14.1211217 19.8265804,9.46002387 21.0037523,8.58544153 C21.7625254,7.98935564 22.7849418,7.85247321 23.6736549,8.2279915 C24.562368,8.6035098 25.1772244,9.4322081 25.2792694,10.3920255 C25.3813144,11.3518429 24.9544552,12.2914124 24.1645841,12.8455847 Z" id="Path" fill="#2D6FC4"></path>
                    <path d="M19.1252865,25.7713604 C17.6701017,25.9317422 13.1592791,23.7665871 13.1592791,23.7665871 C13.1592791,23.7665871 17.0915342,20.6667064 18.546719,20.5088305 C19.49821,20.3864799 20.4415781,20.787718 21.0137639,21.5581266 C21.5859496,22.3285352 21.6977679,23.3480327 21.3061849,24.2242608 C20.914602,25.100489 20.0806528,25.6968724 19.1252865,25.7838902 L19.1252865,25.7713604 Z" id="Path" fill="#2D6FC4"></path>
                    <path d="M13.1167006,34.6926014 C11.7091035,35.0960621 6.89522181,33.7177804 6.89522181,33.7177804 C6.89522181,33.7177804 10.2489094,29.99642 11.6540018,29.5904535 C13.05453,29.2085932 14.5016854,30.0240907 14.901285,31.4203546 C15.3008846,32.8166185 14.5044663,34.274899 13.1141959,34.6926014 L13.1167006,34.6926014 Z" id="Path" fill="#2D6FC4"></path>
                    <path d="M12.6758872,12.4371122 C13.3020425,13.7627685 17.5173198,16.4667064 17.5173198,16.4667064 C17.5173198,16.4667064 18.0958872,11.4898568 17.469732,10.1667064 C17.0759774,9.29082466 16.2399738,8.69614373 15.2837959,8.61176753 C14.3276179,8.52739132 13.4004885,8.96648774 12.8595889,9.75989265 C12.3186892,10.5532976 12.2484332,11.5771908 12.6758872,12.4371122 Z" id="Path" fill="#2D6FC4"></path>
                    <path d="M5.78066543,22.9596659 C6.78251386,24.0372315 11.606414,25.3553699 11.606414,25.3553699 C11.606414,25.3553699 10.6696858,20.4336516 9.6753512,19.3585919 C8.67239207,18.3268875 7.03030268,18.2831113 5.97385652,19.2599143 C4.91741036,20.2367173 4.83170524,21.8780334 5.78066543,22.9596659 Z" id="Path" fill="#2D6FC4"></path>
                    <path d="M0.483391867,34.1087112 C1.28236599,35.3366348 5.81823475,37.4541766 5.81823475,37.4541766 C5.81823475,37.4541766 5.72806839,32.4422434 4.92909427,31.2168258 C4.42592112,30.3923783 3.51474075,29.9066114 2.55016405,29.9485747 C1.58558736,29.990538 0.719986765,30.5536026 0.290234542,31.4186365 C-0.139517682,32.2836703 -0.0655343584,33.3140256 0.483391867,34.1087112 Z" id="Path" fill="#6C63FF"></path>
                </g>
                <g id="Group" opacity="0.1" transform="translate(16.280037, 92.219570)">
                    <path d="M32.1067375,35.0559666 C32.1067375,35.0559666 21.4095009,28.6757757 18.4966266,19.3836516 C17.3036199,15.4753463 14.874147,12.0604726 11.573854,9.65298329 C9.9979796,8.52043436 8.32114159,7.53560167 6.56461183,6.71097852" id="Path" fill="#2D6FC4"></path>
                    <path d="M4.69866913,0.857040573 C5.70051756,1.93210024 6.63474122,6.85381862 6.63474122,6.85381862 C6.63474122,6.85381862 1.80332717,5.53818616 0.808992606,4.46312649 C-0.137978163,3.38242156 -0.0530076377,1.74385502 1.00066083,0.767007972 C2.05432929,-0.209839071 3.69373362,-0.169925739 4.69866913,0.857040573 Z" id="Path" fill="#6C63FF"></path>
                    <path d="M13.4272736,3.84665871 C13.6777357,5.29009547 11.7942606,9.93114558 11.7942606,9.93114558 C11.7942606,9.93114558 8.45309612,6.19976134 8.20263401,4.75632458 C8.01400076,3.81117165 8.35235486,2.83799085 9.08653679,2.21402578 C9.82071871,1.59006071 10.8353004,1.41341114 11.7369897,1.75255346 C12.6386789,2.09169579 13.2857122,2.89331007 13.4272736,3.84665871 Z" id="Path" fill="#6C63FF"></path>
                    <path d="M22.70439,14.1411695 C22.2034658,15.5144391 18.2236229,18.5692124 18.2236229,18.5692124 C18.2236229,18.5692124 17.2217745,13.6600239 17.7352218,12.2892601 C18.0466238,11.3749739 18.8299297,10.7021735 19.7803441,10.532655 C20.7307584,10.3631366 21.6981753,10.7236734 22.306159,11.4739756 C22.9141426,12.2242777 23.0666698,13.2458444 22.70439,14.1411695 Z" id="Path" fill="#6C63FF"></path>
                    <path d="M27.9665989,23.5210024 C27.6960998,24.9619332 24.2998336,28.6557279 24.2998336,28.6557279 C24.2998336,28.6557279 22.4839834,23.9871122 22.7569871,22.5486874 C22.9328182,21.6175799 23.591766,20.8510562 24.4856114,20.5378585 C25.3794567,20.2246608 26.3724032,20.4123711 27.0904174,21.0302809 C27.8084316,21.6481907 28.1424301,22.6024247 27.9665989,23.5335322 L27.9665989,23.5210024 Z" id="Path" fill="#6C63FF"></path>
                    <path d="M7.90207948,13.9106205 C9.36477819,13.9457041 13.6752311,11.4046539 13.6752311,11.4046539 C13.6752311,11.4046539 9.49251386,8.64809069 8.02731054,8.61300716 C6.58277614,8.60730347 5.39929737,9.7592251 5.36518913,11.2041438 C5.33108089,12.6490626 6.45888665,13.8556022 7.90207948,13.9181384 L7.90207948,13.9106205 Z" id="Path" fill="#6C63FF"></path>
                    <path d="M14.1961922,24.8040573 C15.6037893,24.3980907 18.9549723,20.6742243 18.9549723,20.6742243 C18.9549723,20.6742243 14.1410906,19.2984487 12.7334935,19.7044153 C11.3586872,20.1350626 10.5787935,21.5849363 10.9768048,22.9702152 C11.3748162,24.3554942 12.8051966,25.1696406 14.1986969,24.8040573 L14.1961922,24.8040573 Z" id="Path" fill="#6C63FF"></path>
                    <path d="M21.7651571,34.5497613 C23.2228466,34.3893795 27.152597,31.2920048 27.152597,31.2920048 C27.152597,31.2920048 22.6442791,29.1218377 21.184085,29.2872315 C20.2039159,29.3410513 19.3337899,29.9326071 18.9228135,30.8245586 C18.5118371,31.7165102 18.6273541,32.7626998 19.2230175,33.5433819 C19.8186808,34.3240639 20.7968835,34.7113137 21.7651571,34.5497613 Z" id="Path" fill="#6C63FF"></path>
                    <path d="M4.69866913,0.857040573 C5.70051756,1.93210024 6.63474122,6.85381862 6.63474122,6.85381862 C6.63474122,6.85381862 1.80332717,5.53818616 0.808992606,4.46312649 C-0.137978163,3.38242156 -0.0530076377,1.74385502 1.00066083,0.767007972 C2.05432929,-0.209839071 3.69373362,-0.169925739 4.69866913,0.857040573 Z" id="Path" fill="#2D6FC4"></path>
                    <path d="M13.4272736,3.84665871 C13.6777357,5.29009547 11.7942606,9.93114558 11.7942606,9.93114558 C11.7942606,9.93114558 8.45309612,6.19976134 8.20263401,4.75632458 C8.01400076,3.81117165 8.35235486,2.83799085 9.08653679,2.21402578 C9.82071871,1.59006071 10.8353004,1.41341114 11.7369897,1.75255346 C12.6386789,2.09169579 13.2857122,2.89331007 13.4272736,3.84665871 Z" id="Path" fill="#2D6FC4"></path>
                    <path d="M22.70439,14.1411695 C22.2034658,15.5144391 18.2236229,18.5692124 18.2236229,18.5692124 C18.2236229,18.5692124 17.2217745,13.6600239 17.7352218,12.2892601 C18.0466238,11.3749739 18.8299297,10.7021735 19.7803441,10.532655 C20.7307584,10.3631366 21.6981753,10.7236734 22.306159,11.4739756 C22.9141426,12.2242777 23.0666698,13.2458444 22.70439,14.1411695 Z" id="Path" fill="#2D6FC4"></path>
                    <path d="M27.9665989,23.5210024 C27.6960998,24.9619332 24.2998336,28.6557279 24.2998336,28.6557279 C24.2998336,28.6557279 22.4839834,23.9871122 22.7569871,22.5486874 C22.9328182,21.6175799 23.591766,20.8510562 24.4856114,20.5378585 C25.3794567,20.2246608 26.3724032,20.4123711 27.0904174,21.0302809 C27.8084316,21.6481907 28.1424301,22.6024247 27.9665989,23.5335322 L27.9665989,23.5210024 Z" id="Path" fill="#2D6FC4"></path>
                    <path d="M7.90207948,13.9106205 C9.36477819,13.9457041 13.6752311,11.4046539 13.6752311,11.4046539 C13.6752311,11.4046539 9.49251386,8.64809069 8.02731054,8.61300716 C6.58277614,8.60730347 5.39929737,9.7592251 5.36518913,11.2041438 C5.33108089,12.6490626 6.45888665,13.8556022 7.90207948,13.9181384 L7.90207948,13.9106205 Z" id="Path" fill="#2D6FC4"></path>
                    <path d="M14.1961922,24.8040573 C15.6037893,24.3980907 18.9549723,20.6742243 18.9549723,20.6742243 C18.9549723,20.6742243 14.1410906,19.2984487 12.7334935,19.7044153 C11.3586872,20.1350626 10.5787935,21.5849363 10.9768048,22.9702152 C11.3748162,24.3554942 12.8051966,25.1696406 14.1986969,24.8040573 L14.1961922,24.8040573 Z" id="Path" fill="#2D6FC4"></path>
                    <path d="M21.7651571,34.5497613 C23.2228466,34.3893795 27.152597,31.2920048 27.152597,31.2920048 C27.152597,31.2920048 22.6442791,29.1218377 21.184085,29.2872315 C20.2039159,29.3410513 19.3337899,29.9326071 18.9228135,30.8245586 C18.5118371,31.7165102 18.6273541,32.7626998 19.2230175,33.5433819 C19.8186808,34.3240639 20.7968835,34.7113137 21.7651571,34.5497613 Z" id="Path" fill="#2D6FC4"></path>
                </g>
                <path d="M179.513706,202.319212 C186.704473,205.449165 195.478161,203.54463 203.638216,203.765155 C204.752773,203.795227 205.937458,203.887947 206.831608,204.429236 C207.725758,204.970525 208.169076,205.845107 208.782708,206.596897 C211.069427,209.388544 215.755573,210.28568 219.850628,209.812053 C223.945684,209.338425 227.700111,207.76969 231.564741,206.57685 C238.244566,204.511933 245.878651,203.56969 252.468309,205.82506 C253.071922,206.030549 253.720619,206.268616 254.356793,206.185919 C255.801959,206.002983 256.232754,204.504415 257.242116,203.649881 C259.065481,202.103699 263.027791,202.524702 263.82927,200.487351 C264.297634,199.294511 263.218142,198.071599 262.04097,197.25716 C257.532652,194.139737 251.095776,193.626014 245.202403,194.10716 C239.30903,194.588305 233.515841,195.913962 227.592412,195.918974 C220.211294,195.918974 213.080638,193.884129 205.772153,193.049642 C200.710314,192.47327 195.18512,192.548449 190.438863,194.244988 C185.294372,196.079356 184.162283,200.211695 179.513706,202.319212 Z" id="Path" fill="#4291EB" opacity="0.1"></path>
                <path d="M43.432634,192.718854 C55.7052773,196.254773 70.6829113,194.102148 84.6086044,194.352745 C86.5146211,194.387828 88.5333457,194.490573 90.0636691,195.104535 C91.5939926,195.718496 92.3453789,196.708353 93.3948152,197.55537 C97.2970148,200.710382 105.29427,201.725298 112.282163,201.189021 C119.270055,200.652745 125.681885,198.881026 132.279057,197.532816 C143.680092,195.199761 156.71414,194.137232 167.959889,196.680788 C168.991793,196.913842 170.078799,197.181981 171.185841,197.08926 C173.650388,196.881265 174.384242,195.189737 176.109926,194.222434 C179.22317,192.468258 185.983142,192.951909 187.350665,190.651432 C188.152144,189.303222 186.308743,187.919928 184.300037,187.000239 C176.61586,183.479356 165.620573,182.897971 155.55951,183.441766 C145.498447,183.985561 135.610203,185.481623 125.504057,185.489141 C112.905813,185.489141 100.733355,183.191169 88.2578373,182.24642 C79.6168946,181.594869 70.1869963,181.67506 62.0845471,183.599642 C53.300841,185.677088 51.3647689,190.345704 43.432634,192.718854 Z" id="Path" fill="#4291EB" opacity="0.1"></path>
                <path d="M10.582024,201.384487 C14.0884935,203.494511 18.3463494,202.211456 22.3186784,202.359308 C22.8621811,202.379356 23.438244,202.442005 23.8740481,202.80537 C24.3098521,203.168735 24.5252495,203.762649 24.8232994,204.268854 C25.9353512,206.150835 28.2145564,206.757279 30.2057301,206.436516 C32.1969039,206.115752 34.0252773,205.06074 35.9062477,204.253819 C39.1622551,202.863007 42.8715989,202.228998 46.0750092,203.752625 C46.3495233,203.928222 46.6711267,204.015661 46.9967098,204.003222 C47.6980037,203.877924 47.9083919,202.868019 48.3992976,202.291647 C49.2859335,201.249165 51.2144917,201.539857 51.6027079,200.159069 C51.8306285,199.354654 51.304658,198.530191 50.7336044,197.981384 C48.5445656,195.878878 45.40878,195.533055 42.5409889,195.856325 C39.6731978,196.179594 36.8554991,197.056683 33.9726802,197.056683 C30.3835582,197.056683 26.914658,195.685919 23.3580961,195.122076 C20.893549,194.731146 18.2060906,194.781265 15.8968299,195.928998 C13.3947135,197.181981 12.8436969,199.968616 10.582024,201.384487 Z" id="Path" fill="#4291EB" opacity="0.1"></path>
                <path d="M174.191386,9.18937947 L57.8216821,9.18937947 C54.9947923,9.18472358 52.2818728,10.3040126 50.2799063,12.3009448 C48.2779398,14.2978771 47.1509694,17.0088221 47.1469871,19.8372315 L47.1469871,181.153819 C47.1594243,187.040814 51.9378428,191.803851 57.8216821,191.794153 L174.191386,191.794153 C177.018276,191.798809 179.731196,190.67952 181.733162,188.682587 C183.735129,186.685655 184.862099,183.97471 184.866081,181.146301 L184.866081,19.8372315 C184.862099,17.0088221 183.735129,14.2978771 181.733162,12.3009448 C179.731196,10.3040126 177.018276,9.18472358 174.191386,9.18937947 Z" id="Path" fill="url(#linearGradient-1)"></path>
                <rect id="Rectangle" fill="#535461" x="48.7875139" y="11.3770883" width="134.428022" height="178.78568" rx="5"></rect>
                <rect id="Rectangle" fill="#F6F7F9" x="55.6176155" y="28.2873508" width="120.767819" height="144.962649"></rect>
                <ellipse id="Oval" fill="#F6F7F9" cx="115.455518" cy="19.576611" rx="1.6405268" ry="1.64140811"></ellipse>
                <ellipse id="Oval" fill="#F6F7F9" cx="115.455518" cy="181.414439" rx="4.91907579" ry="4.92171838"></ellipse>
                <g id="Group" opacity="0.2" transform="translate(55.602588, 28.066826)" fill="#4291EB">
                    <rect id="Rectangle" x="0.0150277264" y="0.22052506" width="120.767819" height="7.22470167"></rect>
                </g>
                <ellipse id="Oval" fill="#F6F7F9" cx="59.3945841" cy="31.9009547" rx="1.54034196" ry="1.54116945"></ellipse>
                <ellipse id="Oval" fill="#F6F7F9" cx="63.3193253" cy="31.9009547" rx="1.54034196" ry="1.54116945"></ellipse>
                <ellipse id="Oval" fill="#F6F7F9" cx="67.2415619" cy="31.9009547" rx="1.54034196" ry="1.54116945"></ellipse>
                <rect id="Rectangle" fill="#DCE0ED" x="59.2242699" y="70.9013126" width="112.459991" height="1"></rect>
                <rect id="Rectangle" fill="#DCE0ED" x="59.2242699" y="79.6295943" width="112.459991" height="1"></rect>
                <rect id="Rectangle" fill="#DCE0ED" x="59.2242699" y="88.3603819" width="112.459991" height="1"></rect>
                <rect id="Rectangle" fill="#DCE0ED" x="59.2242699" y="97.0886635" width="112.459991" height="1"></rect>
                <rect id="Rectangle" fill="#DCE0ED" x="59.2242699" y="105.816945" width="112.459991" height="1"></rect>
                <g id="Group" opacity="0.2" transform="translate(58.858595, 76.181384)" fill="#6DB2F7">
                    <polygon id="Path" points="112.825665 30.0114558 0.227920518 30.0114558 0.227920518 12.8455847 10.5544732 17.9377088 21.2416913 19.3886635 30.6189926 16.5594272 41.932366 7.78102625 47.6228651 4.49319809 51.7830407 3.69128878 55.7628835 3.90429594 62.3074584 7.13949881 71.2063771 12.8105012 78.1892606 13.7076372 83.7244732 11.7980907 95.4611275 2.1826969 101.452181 0.0451073986 107.721248 1.01491647 112.825665 3.96443914"></polygon>
                </g>
                <path d="M78.7127264,95.5650358 C68.5715157,95.5650358 59.2017283,89.3602625 59.0840111,89.2800716 L59.3645287,88.8640811 C59.5097967,88.9618138 73.9314048,98.5070406 86.1865157,93.7256563 C90.6547597,91.9714797 93.8356285,89.2700477 96.9138078,86.6463007 C100.127237,83.9072792 103.160333,81.3211217 107.297967,80.1984487 C112.041719,78.9128878 117.226285,80.0756563 121.166054,83.3158711 C124.534769,86.0849642 131.242144,90.5305489 138.327717,89.2023866 C141.939381,88.5232697 144.982495,85.8844869 148.205943,83.0903341 C154.384843,77.7325776 160.776636,72.1918854 171.832033,80.1408115 L171.538993,80.546778 C160.804187,72.828401 154.56768,78.2387828 148.534048,83.4687351 C145.258004,86.3079952 142.164797,88.9818616 138.420388,89.6935561 C131.131941,91.0618138 124.284307,86.5260143 120.847967,83.70179 C117.033429,80.5668258 112.019177,79.4416468 107.428207,80.6821002 C103.400776,81.7747017 100.415268,84.3257757 97.2369039,87.0272076 C94.1286691,89.6785203 90.9152403,92.4175418 86.369353,94.1917661 C83.9250849,95.1233077 81.3282011,95.589077 78.7127264,95.5650358 Z" id="Path" fill="#2D6FC4"></path>
                <ellipse id="Oval" fill="#2D6FC4" cx="113.339113" cy="79.8476134" rx="2.78764325" ry="2.78914081"></ellipse>
                <g id="Group" opacity="0.2" transform="translate(113.960259, 42.852029)" fill="#4291EB">
                    <path d="M35.7409427,0.0877088305 L0.576062847,0.0877088305 C0.26067865,0.0877088305 0.00500924214,0.343515587 0.00500924214,0.659069212 L0.00500924214,24.453222 C0.00531133936,24.6873151 0.148301598,24.897542 0.365838433,24.9837197 C0.583375269,25.0698973 0.831444688,25.0145894 0.991829945,24.8441527 L7.08557301,18.3411695 C7.19318002,18.2259727 7.3437479,18.160631 7.50134011,18.1607399 L35.7409427,18.1607399 C36.0563269,18.1607399 36.3119963,17.9049331 36.3119963,17.5893795 L36.3119963,0.654057279 C36.3092468,0.340462684 36.054381,0.0876967648 35.7409427,0.0877088305 Z" id="Path"></path>
                </g>
                <rect id="Rectangle" fill="#F6F7F9" x="122.105287" y="47.3452267" width="20.0244455" height="2.50596659"></rect>
                <rect id="Rectangle" fill="#F6F7F9" x="122.105287" y="52.8984487" width="5.49764325" height="2.50596659"></rect>
                <g id="Group" opacity="0.2" transform="translate(68.626617, 124.045346)" fill="#6DB2F7">
                    <rect id="Rectangle" x="0.0951756007" y="0.0801909308" width="5.49764325" height="2.50596659"></rect>
                </g>
                <g id="Group" opacity="0.2" transform="translate(68.626617, 128.806683)" fill="#6DB2F7">
                    <rect id="Rectangle" x="0.0951756007" y="0.162887828" width="5.49764325" height="2.50596659"></rect>
                </g>
                <g id="Group" opacity="0.2" transform="translate(68.626617, 133.568019)" fill="#6DB2F7">
                    <rect id="Rectangle" x="0.0951756007" y="0.245584726" width="5.49764325" height="2.50596659"></rect>
                </g>
                <g id="Group" opacity="0.2" transform="translate(68.626617, 138.579952)" fill="#6DB2F7">
                    <rect id="Rectangle" x="0.0951756007" y="0.0801909308" width="5.49764325" height="2.50596659"></rect>
                </g>
                <g id="Group" opacity="0.2" transform="translate(68.626617, 143.341289)" fill="#6DB2F7">
                    <rect id="Rectangle" x="0.0951756007" y="0.162887828" width="5.49764325" height="2.50596659"></rect>
                </g>
                <g id="Group" opacity="0.2" transform="translate(68.626617, 148.102625)" fill="#6DB2F7">
                    <rect id="Rectangle" x="0.0951756007" y="0.245584726" width="5.49764325" height="2.50596659"></rect>
                </g>
                <g id="Group" opacity="0.2" transform="translate(68.626617, 153.114558)" fill="#6DB2F7">
                    <rect id="Rectangle" x="0.0951756007" y="0.0801909308" width="5.49764325" height="2.50596659"></rect>
                </g>
                <g id="Group" opacity="0.2" transform="translate(68.626617, 157.875895)" fill="#6DB2F7">
                    <rect id="Rectangle" x="0.0951756007" y="0.162887828" width="5.49764325" height="2.50596659"></rect>
                </g>
                <g id="Group" opacity="0.2" transform="translate(78.895564, 160.381862)" fill="#6DB2F7">
                    <rect id="Rectangle" x="0.177828096" y="0.162887828" width="5.49764325" height="2.50596659"></rect>
                </g>
                <g id="Group" opacity="0.2" transform="translate(88.663586, 160.381862)" fill="#6DB2F7">
                    <rect id="Rectangle" x="0.0951756007" y="0.162887828" width="5.49764325" height="2.50596659"></rect>
                </g>
                <g id="Group" opacity="0.2" transform="translate(98.431608, 160.381862)" fill="#6DB2F7">
                    <rect id="Rectangle" x="0.0125231054" y="0.162887828" width="5.49764325" height="2.50596659"></rect>
                </g>
                <g id="Group" opacity="0.2" transform="translate(107.949168, 160.381862)" fill="#6DB2F7">
                    <rect id="Rectangle" x="0.177828096" y="0.162887828" width="5.49764325" height="2.50596659"></rect>
                </g>
                <g id="Group" opacity="0.2" transform="translate(117.717190, 160.381862)" fill="#6DB2F7">
                    <rect id="Rectangle" x="0.0951756007" y="0.162887828" width="5.49764325" height="2.50596659"></rect>
                </g>
                <g id="Group" opacity="0.2" transform="translate(127.485213, 160.381862)" fill="#6DB2F7">
                    <rect id="Rectangle" x="0.0125231054" y="0.162887828" width="5.49764325" height="2.50596659"></rect>
                </g>
                <g id="Group" opacity="0.2" transform="translate(137.002773, 160.381862)" fill="#6DB2F7">
                    <rect id="Rectangle" x="0.177828096" y="0.162887828" width="5.49764325" height="2.50596659"></rect>
                </g>
                <g id="Group" opacity="0.2" transform="translate(146.770795, 160.381862)" fill="#6DB2F7">
                    <rect id="Rectangle" x="0.0951756007" y="0.162887828" width="5.49764325" height="2.50596659"></rect>
                </g>
                <g id="Group" opacity="0.2" transform="translate(156.538817, 160.381862)" fill="#6DB2F7">
                    <rect id="Rectangle" x="0.0125231054" y="0.162887828" width="5.49764325" height="2.50596659"></rect>
                </g>
                <rect id="Rectangle" fill="#F6F7F9" x="133.78183" y="52.8984487" width="8.34790203" height="2.50596659"></rect>
                <rect id="Rectangle" fill="#6DB2F7" x="79.0733919" y="142.33389" width="5.49764325" height="15.7048926"></rect>
                <rect id="Rectangle" fill="#6DB2F7" x="88.7587616" y="135.066587" width="5.49764325" height="22.9721957"></rect>
                <rect id="Rectangle" fill="#6DB2F7" x="98.4441312" y="128.96957" width="5.49764325" height="29.0692124"></rect>
                <rect id="Rectangle" fill="#6DB2F7" x="108.126996" y="132.129594" width="5.49764325" height="25.9066826"></rect>
                <rect id="Rectangle" fill="#6DB2F7" x="117.812366" y="126.631504" width="5.49764325" height="31.4072792"></rect>
                <g id="Group" opacity="0.2" transform="translate(127.485213, 138.579952)" fill="#6DB2F7">
                    <rect id="Rectangle" x="0.0125231054" y="0.0801909308" width="5.49764325" height="19.3786396"></rect>
                </g>
                <g id="Group" opacity="0.2" transform="translate(137.002773, 138.579952)" fill="#6DB2F7">
                    <rect id="Rectangle" x="0.177828096" y="0.0801909308" width="5.49764325" height="19.3786396"></rect>
                </g>
                <g id="Group" opacity="0.2" transform="translate(146.770795, 138.579952)" fill="#6DB2F7">
                    <rect id="Rectangle" x="0.0951756007" y="0.0801909308" width="5.49764325" height="19.3786396"></rect>
                </g>
                <g id="Group" opacity="0.2" transform="translate(156.538817, 138.579952)" fill="#6DB2F7">
                    <rect id="Rectangle" x="0.0125231054" y="0.0801909308" width="5.49764325" height="19.3786396"></rect>
                </g>
                <path d="M247.827246,68.5381862 C241.873762,65.1125298 239.624612,64.2630072 239.612089,64.2579952 L239.491867,64.1702864 C238.842539,63.6713257 238.326348,63.0197141 237.989094,62.2732697 C237.989094,62.1354415 237.989094,62.0001193 237.989094,61.8647971 L237.989094,61.9048926 C238.08427,60.0905728 239.37415,58.4391408 240.598909,56.99821 L243.727181,53.3144391 C244.08395,52.9507831 244.358921,52.5150369 244.533669,52.0363962 C244.598208,51.7801452 244.626868,51.5161681 244.618826,51.2520286 C244.618826,51.1442721 244.618826,51.0365155 244.618826,50.9312649 C244.603799,50.0165871 244.576248,49.0994033 244.543688,48.1747017 C244.513632,47.3752983 244.308253,46.3678998 243.509279,46.202506 C243.093512,46.1173031 242.545,46.2676611 242.324593,45.9093079 C242.250677,45.7629059 242.232003,45.5947456 242.271996,45.4356802 C242.27082,45.4481824 242.27082,45.4607675 242.271996,45.4732697 L242.271996,45.4281623 C242.427532,44.8110433 242.527284,44.1811795 242.570046,43.5461814 C242.585781,43.2234354 242.541622,42.9005655 242.439806,42.5939141 C241.976451,41.2657518 240.383512,40.721957 238.97341,40.4713604 C237.563309,40.2207637 235.985397,40.0052506 235.101266,38.9026253 C234.828262,38.5618138 234.642921,38.1508353 234.332348,37.8426014 C233.924388,37.4810127 233.427126,37.2352767 232.89219,37.1309069 C231.143326,36.6984541 229.300473,36.8588648 227.652523,37.5869928 C226.971266,37.8902148 226.287505,38.3011933 225.541128,38.2560859 C224.79475,38.2109785 224.10097,37.6721957 223.334556,37.5418854 C222.097274,37.3313842 220.912588,38.2410501 220.303965,39.3161098 C219.942464,39.9555573 219.749404,40.6764725 219.74293,41.4110979 C219.74293,41.4511933 219.74293,41.4937947 219.74293,41.5338902 C219.724607,42.323627 220.012763,43.0897608 220.546913,43.6714797 C221.080397,44.2252983 221.876867,44.6062053 222.097274,45.3354415 C222.18744,45.6311456 222.164898,45.9519093 222.245046,46.2526253 C222.245046,46.2902148 222.267588,46.3278043 222.280111,46.3628878 L222.240037,46.4155131 C220.962892,48.0531486 220.271494,50.0719842 220.276414,52.1491647 C220.30322,56.2838869 223.000541,59.9261626 226.94622,61.1556086 C226.94622,61.2483294 226.94622,61.3435561 226.94622,61.4362768 C226.94622,62.5739857 226.623124,63.7342482 225.651331,64.5887828 L217.220776,67.9818616 C217.220776,67.9818616 212.1389,67.3779236 210.305518,74.8106205 C210.010532,76.0446153 209.904131,77.3162082 209.989935,78.5821002 C210.05756,79.7022673 209.902274,81.676969 208.599871,84.2305489 C206.513521,88.3152745 206.989399,97.6926014 211.252264,98.622315 C215.27719,99.4994033 216.852597,99.1235084 217.012893,99.0909308 L217.012893,99.2538186 C216.947773,101.007995 216.309094,116.191647 213.987311,118.02852 C213.346128,118.529714 213.466349,118.880549 213.987311,119.111098 C213.987311,119.111098 213.987311,119.208831 213.972283,119.384248 C213.902153,120.494391 213.543993,124.721957 211.991128,127.127685 C210.190305,129.911814 210.378152,145.977566 210.378152,145.977566 L209.16842,155.457637 C209.16842,155.457637 209.919806,161.306563 209.16842,162.328998 C208.492172,163.238663 207.590508,184.882697 207.415185,189.57136 L207.335037,189.57136 C206.5817,189.61658 205.899717,190.032372 205.514177,190.681504 C204.512329,192.300358 201.030906,195.289976 201.030906,195.289976 C200.279519,196.365036 197.476848,197.392482 195.996617,197.87864 C195.798217,197.942453 195.606868,198.026423 195.425564,198.129236 C194.872579,198.431128 194.428379,198.899235 194.155721,199.467422 C193.96101,199.806135 193.911333,200.20919 194.017967,200.585084 C194.398669,201.512291 202.263179,202.161337 204.251848,201.234129 C205.817237,200.502387 212.016174,199.542601 214.58842,199.166706 C215.549073,199.04451 216.305877,198.288329 216.429316,197.327327 C216.475183,196.998606 216.384692,196.665417 216.178854,196.405131 C215.67793,195.793675 215.427468,194.127208 215.319769,193.039618 C215.528923,192.955224 215.724015,192.839458 215.898336,192.696301 C215.687138,189.322732 216.170491,185.941702 217.318457,182.762649 C219.214455,177.750716 219.783004,168.461098 219.322153,162.42673 C219.322153,162.42673 225.102819,137.542482 229.651211,135.219451 C229.72134,135.30716 231.927911,138.143914 232.208429,146.917303 C232.493956,155.831026 235.714898,161.679952 235.714898,161.679952 C235.714898,161.679952 234.292274,176.81599 235.714898,182.479475 L233.853965,191.415752 C233.718715,191.297971 233.631054,191.207757 233.631054,191.207757 C233.631054,191.207757 233.686155,191.458353 233.763799,191.854296 L233.723725,192.042243 L233.803872,192.062291 C234.014261,193.179952 234.327338,195.127088 234.199603,196.269809 C234.124464,196.918854 233.94914,197.810979 233.8189,198.685561 C233.62354,200.061337 233.568438,201.394511 234.292274,201.692721 C235.476959,202.168854 242.442311,202.820406 243.626996,201.28926 C244.169078,200.652108 244.303036,199.762461 243.972634,198.993795 C243.886351,198.783414 243.769918,198.586722 243.626996,198.409905 C243.626996,198.409905 241.778586,195.385203 242.299547,193.252625 C242.399405,192.831254 242.319556,192.387311 242.07914,192.027208 C242.159288,190.979714 242.580065,186.13568 243.674584,182.020883 C244.85927,177.552745 247.361386,167.756921 245.52049,161.314081 C245.45036,161.063484 245.370213,160.812888 245.285055,160.562291 C244.222788,157.045812 243.868638,153.353355 244.243133,149.698926 C243.559732,146.578426 243.559732,143.346872 244.243133,140.226372 C245.380231,135.026492 246.174196,129.919332 246.174196,129.919332 C246.174196,129.919332 246.802856,123.050477 246.254344,118.837947 L246.216774,118.567303 L246.517329,118.499642 C246.517329,118.499642 244.906858,111.350119 244.338309,106.80179 C244.203059,105.72673 244.027736,104.36599 243.837384,102.91253 C244.362393,102.828589 244.879356,102.700326 245.382736,102.529117 C250.482144,100.757399 252.085102,84.7893795 252.085102,84.7893795 L252.085102,79.727327 C252.085102,79.727327 253.798262,71.9738663 247.827246,68.5381862 Z M209.706913,191.849284 C209.549122,191.769093 209.456451,191.716468 209.456451,191.716468 L209.706913,191.849284 Z" id="Shape" fill="url(#linearGradient-2)" fill-rule="nonzero"></path>
                <path d="M244.739048,160.697613 C246.958142,167.082816 244.368364,177.444988 243.166146,182.071002 C241.963928,186.697017 241.593244,192.252745 241.593244,192.252745 C236.877043,192.992005 233.45573,192.064797 233.45573,192.064797 L235.396811,182.542124 C234.009251,176.898687 235.396811,161.815274 235.396811,161.815274 C235.396811,161.815274 232.253512,155.986396 231.975499,147.102745 C231.702495,138.356921 229.548521,135.532697 229.470878,135.444988 C225.032689,137.757995 219.389778,162.559547 219.389778,162.559547 C219.853133,168.573866 219.297107,177.825895 217.448697,182.822792 C216.327583,185.996739 215.855713,189.363816 216.061137,192.723866 C215.414945,193.270167 214.515786,193.362888 213.543993,193.207518 C210.911636,192.768974 207.753309,190.493556 207.753309,190.493556 C207.753309,190.493556 208.755157,163.47673 209.506543,162.456802 C210.25793,161.436874 209.506543,155.607995 209.506543,155.607995 L210.706257,146.170525 C210.706257,146.170525 210.52342,130.159905 212.279159,127.375776 C213.796959,124.977566 214.145102,120.765036 214.212726,119.659905 C214.212726,119.484487 214.227754,119.386754 214.227754,119.386754 L216.902689,116.179117 C216.902689,116.179117 242.800471,114.236993 244.741553,116.179117 C245.219935,116.657757 245.512976,117.740334 245.688299,119.106086 C246.221784,123.30358 245.610656,130.149881 245.610656,130.149881 C245.610656,130.149881 244.834224,135.239499 243.724677,140.424344 C243.056379,143.534636 243.056379,146.751522 243.724677,149.861814 C243.356373,153.505383 243.700912,157.185846 244.739048,160.697613 Z" id="Path" fill="#65617D"></path>
                <path d="M243.121063,201.274224 C241.963928,202.800358 235.166386,202.151313 234.009251,201.677685 C233.302948,201.384487 233.35805,200.056325 233.548401,198.685561 C233.668623,197.813484 233.846451,196.931384 233.919085,196.277327 C234.104427,194.610859 233.363059,191.232816 233.363059,191.232816 C233.363059,191.232816 234.890878,192.851671 235.259057,191.232816 C235.421858,190.526134 235.990407,190.162768 236.578993,189.979833 C237.371916,189.741561 238.223867,189.794892 238.980924,190.130191 C240.180638,190.651432 242.186839,191.764081 241.826174,193.267661 C241.32525,195.392721 243.121063,198.407399 243.121063,198.407399 C243.260221,198.584088 243.373252,198.779888 243.456682,198.988783 C243.779706,199.753586 243.650311,200.634712 243.121063,201.274224 Z" id="Path" fill="#A27772"></path>
                <path d="M243.121063,201.274224 C241.963928,202.800358 235.166386,202.151313 234.009251,201.677685 C233.302948,201.384487 233.35805,200.056325 233.548401,198.685561 C234.277246,199.026372 235.519538,199.312053 237.588355,199.119093 C238.072019,199.073993 238.558013,199.058928 239.04354,199.073986 C240.514918,199.141637 241.98915,199.112337 243.456682,198.986277 C243.780731,199.751779 243.651292,200.634171 243.121063,201.274224 Z" id="Path" fill="#000000" opacity="0.1"></path>
                <path d="M219.397292,162.549523 C219.860647,168.563842 219.304621,177.815871 217.456211,182.812768 C216.335097,185.986715 215.863227,189.353792 216.068651,192.713842 C215.422458,193.260143 214.523299,193.352864 213.551506,193.197494 C214.110037,189.288186 216.486922,172.478162 218.022255,159.194033 C219.745434,144.065513 227.860407,133.655728 227.860407,133.655728 L229.478392,135.43747 C225.035194,137.747971 219.397292,162.549523 219.397292,162.549523 Z" id="Path" fill="#000000" opacity="0.1"></path>
                <path d="M240.345943,65.2954654 L239.216359,70.8461814 L233.686155,80.1458234 L226.866072,77.2313842 C226.866072,77.2313842 217.598974,67.5157518 223.422218,66.1274463 C224.119842,65.9783666 224.778512,65.6847082 225.355786,65.2653938 C226.500397,64.4033413 226.858558,63.147852 226.858558,61.9199284 C226.858558,59.8926014 225.911811,57.9379475 225.911811,57.9379475 L237.841322,54.1789976 C237.348559,55.7474713 237.060643,57.3731311 236.984741,59.0155131 C236.894575,62.2732697 238.101802,63.8670644 239.091128,64.6313842 C239.461448,64.9335072 239.887933,65.1592145 240.345943,65.2954654 Z" id="Path" fill="#FBBEBE"></path>
                <path d="M237.848835,54.1915274 C237.356072,55.7600011 237.068157,57.385661 236.992255,59.028043 C236.775401,59.2868196 236.543754,59.532816 236.298475,59.7647971 C233.789798,62.1642358 230.167066,62.9919636 226.866072,61.9199284 C226.866072,59.8926014 225.919325,57.9379475 225.919325,57.9379475 L237.848835,54.1915274 Z" id="Path" fill="#000000" opacity="0.1"></path>
                <path d="M239.216359,52.6653938 C239.215343,56.4831777 236.915484,59.9242848 233.389527,61.3836468 C229.863569,62.8430089 225.806151,62.0331216 223.109812,59.3317485 C220.413473,56.6303753 219.60941,52.5697051 221.072671,49.0437949 C222.535931,45.5178847 225.978242,43.2213628 229.793974,43.2254177 C232.297574,43.217376 234.700769,44.2097624 236.469915,45.9822109 C238.23906,47.7546595 239.227721,50.1604618 239.216359,52.6653938 Z" id="Path" fill="#FBBEBE"></path>
                <path d="M240.345943,65.2954654 L239.216359,70.8461814 L233.686155,80.1458234 L226.866072,77.2313842 C226.866072,77.2313842 217.598974,67.5157518 223.422218,66.1274463 C224.119842,65.9783666 224.778512,65.6847082 225.355786,65.2653938 C224.303845,68.1597852 228.646858,74.1791169 228.646858,74.1791169 C229.147782,74.9309069 230.312431,74.4547733 230.312431,74.4547733 C233.107588,74.0337709 238.259593,65.9821002 239.098641,64.6439141 C239.467767,64.9407041 239.891553,65.1620766 240.345943,65.2954654 Z" id="Path" fill="#000000" opacity="0.1"></path>
                <path d="M245.685795,119.121122 C244.045268,119.494511 234.958503,121.509308 231.512144,121.005609 C227.722652,120.449284 220.349048,120.080907 220.349048,120.080907 C220.349048,120.080907 215.655388,120.331504 214.210222,119.67494 C214.210222,119.499523 214.22525,119.40179 214.22525,119.40179 L216.900185,116.194153 C216.900185,116.194153 242.797967,114.252029 244.739048,116.194153 C245.217431,116.66778 245.510471,117.750358 245.685795,119.121122 Z" id="Path" fill="#000000" opacity="0.1"></path>
                <path d="M228.646858,74.4547733 C228.646858,74.4547733 223.767856,67.6886635 225.606248,65.0599045 L217.36354,68.4404535 C217.36354,68.4404535 212.401885,67.8390215 210.601063,75.2466587 C210.313615,76.4775778 210.209801,77.7442806 210.292994,79.0056086 C210.358115,80.1232697 210.207837,82.0904535 208.93549,84.6340095 C206.899233,88.7062053 207.362588,98.0509547 211.525268,98.9781623 C215.687948,99.9053699 217.165675,99.4392601 217.165675,99.4392601 C217.165675,99.4392601 216.612153,116.374582 214.207717,118.316706 C211.803281,120.258831 220.336525,119.797733 220.336525,119.797733 C220.336525,119.797733 227.710129,120.168616 231.502126,120.722434 C235.294122,121.276253 245.928743,118.78031 245.928743,118.78031 C245.928743,118.78031 244.355841,111.653341 243.80232,107.120048 C243.248799,102.586754 241.951405,92.9312649 241.951405,92.9312649 L251.386312,80.1508353 C251.386312,80.1508353 253.049381,72.4249403 247.223632,69.00179 C241.397884,65.5786396 239.208845,64.7416468 239.208845,64.7416468 C239.208845,64.7416468 233.363059,74.2643198 230.312431,74.7329356 C230.312431,74.7329356 229.152791,75.1990453 228.646858,74.4547733 Z" id="Path" fill="#7C7CDD"></path>
                <path d="M217.826895,77.1386635 C217.826895,77.1386635 217.734224,80.1934368 218.287745,81.3988067 C218.841266,82.6041766 220.877523,89.2650358 220.877523,89.2650358 L216.253993,89.2650358 C216.253993,89.2650358 218.758614,86.5811456 218.565758,85.2855609 C218.372902,83.9899761 217.826895,77.1386635 217.826895,77.1386635 Z" id="Path" fill="#000000" opacity="0.1"></path>
                <path d="M231.514649,100.181026 C231.514649,100.181026 221.300804,97.6750597 220.349048,95.552506 C219.397292,93.4299523 216.769945,88.6636038 216.769945,88.6636038 L217.846932,87.2101432 L222.8161,91.1119332 C222.8161,91.1119332 228.734519,95.8306683 231.50964,96.2942721 C234.28476,96.7578759 231.514649,100.181026 231.514649,100.181026 Z" id="Path" fill="#FBBEBE"></path>
                <path d="M231.514649,100.181026 C231.514649,100.181026 221.300804,97.6750597 220.349048,95.552506 C219.397292,93.4299523 216.769945,88.6636038 216.769945,88.6636038 L217.846932,87.2101432 L222.8161,91.1119332 C222.8161,91.1119332 228.734519,95.8306683 231.50964,96.2942721 C234.28476,96.7578759 231.514649,100.181026 231.514649,100.181026 Z" id="Path" fill="#000000" opacity="0.05"></path>
                <path d="M240.345943,88.1523866 L240.345943,93.6955847 L239.454298,93.6955847 C235.054047,93.6964298 230.726371,94.8175213 226.878595,96.9533413 L225.210518,97.8805489 L224.76219,98.1311456 L221.894399,91.6707637 L224.576848,89.2650358 L224.714603,89.2650358 C225.370813,89.327685 228.208549,89.5657518 229.410767,89.1597852 C230.552874,88.7713604 231.97049,87.5409308 235.334196,88.4079952 C236.992255,88.8315036 238.407366,90.6909308 240.015333,90.1095465 L240.345943,88.1523866 Z" id="Path" fill="#FBBEBE"></path>
                <path d="M249.269908,78.0658711 L251.120823,80.1458234 L251.120823,85.1903341 C251.120823,85.1903341 249.547921,101.105728 244.553706,102.864916 C239.559492,104.624105 230.645545,101.844988 230.645545,101.844988 C230.645545,101.844988 228.341294,95.7379475 229.418281,95.3695704 C230.495268,95.0011933 238.935841,92.7683771 238.935841,92.7683771 C238.935841,92.7683771 238.818124,83.4311456 240.666534,80.6545346 C240.666534,80.6545346 239.464316,71.9588305 243.626996,71.773389 C247.789677,71.5879475 249.269908,78.0658711 249.269908,78.0658711 Z" id="Path" fill="#000000" opacity="0.1"></path>
                <path d="M249.547921,78.0658711 L251.398835,80.1458234 L251.398835,85.1903341 C251.398835,85.1903341 249.830943,101.105728 244.821701,102.864916 C239.812458,104.624105 230.911035,101.844988 230.911035,101.844988 C230.911035,101.844988 228.609288,95.7379475 229.686275,95.3695704 C230.763262,95.0011933 239.203835,92.7683771 239.203835,92.7683771 C239.203835,92.7683771 239.083614,83.4311456 240.934529,80.6545346 C240.934529,80.6545346 239.732311,71.9588305 243.894991,71.773389 C248.057671,71.5879475 249.547921,78.0658711 249.547921,78.0658711 Z" id="Path" fill="#7C7CDD"></path>
                <path d="M236.629085,56.6749403 C236.666654,56.0659905 236.679177,55.421957 236.418697,54.8731504 C236.158216,54.3243437 235.547089,53.8857995 234.950989,54.0261337 C234.159529,54.2115752 233.8189,55.2415274 233.042468,55.4896181 C232.388762,55.6976134 231.674945,55.2390215 231.364372,54.6225537 C231.053799,54.0060859 231.04378,53.2943914 231.041275,52.6177804 C231.041275,51.8459427 231.041275,51.071599 231.041275,50.2997613 C231.041275,49.4577566 231.013725,48.5455847 230.495268,47.8890215 C229.85158,47.0645585 228.336285,46.7062053 227.324418,46.7387828 C226.6504,46.7466198 226.003987,47.0078287 225.513577,47.4705251 C224.972579,47.9291169 224.346423,48.2699284 223.60756,48.147136 C222.98114,48.0521487 222.464862,47.6057668 222.280111,46.9994033 L222.280111,46.9693317 C224.424035,44.1352642 227.977582,42.7467541 231.473708,43.377033 C234.969834,44.0073118 237.815524,46.5494713 238.835965,49.9540078 C239.856405,53.3585444 238.878509,57.0479778 236.305989,59.4991647 C236.46666,58.5645815 236.57453,57.6216765 236.629085,56.6749403 Z" id="Path" fill="#000000" opacity="0.1"></path>
                <path d="M223.602551,47.8614558 C222.975751,47.7654811 222.459575,47.3182132 222.275102,46.7112172 C222.197458,46.4130072 222.217495,46.0947494 222.129834,45.7965394 C221.914436,45.0698091 221.127985,44.6914081 220.627061,44.1400955 C219.585139,43.0324582 219.652763,41.2131265 220.391627,39.8799523 C220.987726,38.8073986 222.144861,37.9027446 223.349584,38.1107399 C224.10097,38.2410501 224.744658,38.774821 225.503558,38.8224344 C226.262458,38.8700477 226.898632,38.4590692 227.564861,38.1558473 C229.168198,37.429295 230.970688,37.2693607 232.676793,37.7022673 C233.201212,37.8076647 233.687498,38.0526698 234.08439,38.4114558 C234.352867,38.7499279 234.603664,39.1020691 234.835776,39.4664678 C235.699871,40.5665871 237.242717,40.7821002 238.617754,41.0301909 C239.992791,41.2782816 241.545656,41.8220764 241.998993,43.1452267 C242.297043,44.022315 241.998993,44.9745823 241.836192,45.8867542 C241.778199,46.072623 241.790682,46.2733544 241.871257,46.4505967 C242.086654,46.8064439 242.622643,46.6585919 243.028392,46.7437947 C243.809834,46.9066826 244.010203,47.9115752 244.03024,48.7084726 C244.063635,49.6206444 244.088681,50.5328162 244.105379,51.4449881 C244.199501,52.3030014 243.876215,53.1540635 243.236275,53.7329356 L240.183142,57.4041766 C238.828142,59.0330549 237.39049,60.9300716 237.663494,63.0300716 C237.022311,63.3182578 236.260906,62.7619332 236.050518,62.0903341 C235.840129,61.4187351 236.010444,60.6970167 236.150702,60.0078759 C236.39783,58.8164292 236.559374,57.6088066 236.634094,56.3942721 C236.671664,55.7828162 236.684187,55.1412888 236.423706,54.5924821 C236.163226,54.0436754 235.552098,53.5900955 234.955998,53.7429594 C234.164538,53.928401 233.823909,54.9583532 233.047477,55.2064439 C232.396275,55.4144391 231.679954,54.9558473 231.369381,54.3393795 C231.058808,53.7229117 231.048789,53.0112172 231.046285,52.3346062 L231.046285,50.0140811 C231.046285,49.1745823 231.018734,48.2599045 230.500277,47.6033413 C229.85659,46.7788783 228.341294,46.4205251 227.329427,46.4531026 C226.655508,46.4614287 226.009265,46.7225686 225.518586,47.1848449 C224.967569,47.6434368 224.341414,47.9817422 223.602551,47.8614558 Z" id="Path" fill="#7C5C5C"></path>
                <path d="M225.733983,76.9081146 L228.629325,88.8114558 C228.629325,88.8114558 230.91354,88.798926 225.733983,76.9081146 Z" id="Path" fill="#000000" opacity="0.1"></path>
                <path d="M235.629741,74.9183771 C235.629741,74.9183771 231.837745,81.1331742 233.317976,87.5559666 L234.024279,87.6085919 C234.024279,87.6085919 232.76195,84.6340095 235.629741,74.9183771 Z" id="Path" fill="#000000" opacity="0.1"></path>
                <path d="M238.034177,110.0821 C238.034177,110.0821 242.690268,108.540931 243.028392,112.116945 C243.028392,112.116945 242.14927,109.66611 238.034177,110.0821 Z" id="Path" fill="#000000" opacity="0.1"></path>
                <path d="M224.576848,89.550716 C224.576848,89.550716 223.652643,96.0286396 225.328235,98.6198091 C225.328235,98.6198091 221.941987,100.008115 217.188216,99.7299523 L216.624677,89.550716 L224.576848,89.550716 Z" id="Path" fill="#000000" opacity="0.1"></path>
                <path d="M225.210518,97.878043 L224.76219,98.1286396 L221.894399,91.6682578 L224.576848,89.2625298 L224.714603,89.2625298 C224.672024,89.5732697 223.925647,95.1365155 225.210518,97.878043 Z" id="Path" fill="#000000" opacity="0.1"></path>
                <path d="M224.576848,89.2625298 C224.576848,89.2625298 223.652643,95.7379475 225.328235,98.3291169 C225.328235,98.3291169 221.941987,99.7174224 217.188216,99.4392601 L213.952246,89.2625298 L224.576848,89.2625298 Z" id="Path" fill="#7C7CDD"></path>
                <path d="M216.577089,197.334845 C216.466818,198.28413 215.727742,199.038043 214.781275,199.166706 C212.276654,199.542601 206.220481,200.499881 204.692662,201.226611 C202.75158,202.151313 195.074917,201.504773 194.704233,200.580072 C194.599756,200.206212 194.647483,199.806172 194.836978,199.467422 C195.104201,198.90189 195.542268,198.43466 196.089288,198.131742 C196.265868,198.029972 196.452127,197.946026 196.645314,197.881146 C198.090481,197.397494 200.820518,196.377566 201.559381,195.3 C201.559381,195.3 204.963161,192.320406 205.932449,190.709069 C206.303783,190.066517 206.970565,189.651199 207.71073,189.601432 C208.522227,189.563842 209.423891,189.972315 209.79207,191.749045 C209.79207,191.749045 214.230259,194.282578 215.429972,192.059785 C215.429972,192.059785 215.615314,195.472912 216.351673,196.405131 C216.548293,196.672292 216.629503,197.007239 216.577089,197.334845 Z" id="Path" fill="#A27772"></path>
                <path d="M216.577089,197.334845 C216.466818,198.28413 215.727742,199.038043 214.781275,199.166706 C212.276654,199.542601 206.220481,200.499881 204.692662,201.226611 C202.75158,202.151313 195.074917,201.504773 194.704233,200.580072 C194.599756,200.206212 194.647483,199.806172 194.836978,199.467422 C195.104201,198.90189 195.542268,198.43466 196.089288,198.131742 C197.341599,198.963723 200.119224,199.775656 206.230499,198.820883 C212.058752,197.911217 214.944076,197.019093 216.351673,196.410143 C216.546972,196.676005 216.628116,197.008872 216.577089,197.334845 Z" id="Path" fill="#000000" opacity="0.1"></path>
                <g id="Group" opacity="0.1" transform="translate(219.655268, 41.849642)" fill="#000000">
                    <path d="M22.1608872,4.17243437 L22.1608872,4.12732697 C22.2936322,3.43317422 22.4914972,2.71646778 22.446414,2.024821 C22.3870541,2.59247864 22.2916861,3.15578647 22.1608872,3.71133652 C22.1258844,3.8630408 22.1258844,4.02073008 22.1608872,4.17243437 Z" id="Path"></path>
                    <path d="M16.7609242,12.8330549 C16.9067334,13.1667903 16.9842322,13.5263734 16.9888447,13.8905728 C17.031727,13.3882346 16.9535675,12.8829326 16.7609242,12.4170644 C16.5104621,11.8632458 15.8918207,11.4272076 15.2957209,11.5675418 C14.5042606,11.7529833 14.1636322,12.7829356 13.3871996,13.0310263 C12.7334935,13.2390215 12.0196765,12.7804296 11.7065989,12.1639618 C11.3935213,11.547494 11.388512,10.8357995 11.3860074,10.1591885 C11.3860074,9.38484487 11.3860074,8.61300716 11.3860074,7.83866348 C11.3860074,6.99916468 11.3584566,6.08448687 10.84,5.42792363 C10.1963124,4.60346062 8.67851201,4.2451074 7.66914972,4.27768496 C6.99513247,4.28552197 6.34871929,4.54673088 5.85830869,5.00942721 C5.31480591,5.47052506 4.69115527,5.80883055 3.95229205,5.68854415 C3.32549233,5.59256942 2.8093165,5.14530152 2.62484288,4.53830549 C2.54719963,4.24009547 2.5672366,3.92183771 2.47957486,3.62362768 C2.26167283,2.89689737 1.47772643,2.51849642 0.976802218,1.96718377 C0.489791365,1.4301087 0.213158882,0.735041071 0.197865065,0.0100238663 C0.119853673,0.874639621 0.40165038,1.73317609 0.976802218,2.38317422 C1.4977634,2.93448687 2.27169131,3.31539379 2.47957486,4.04212411 C2.5672366,4.33782816 2.54719963,4.65608592 2.62484288,4.95429594 C2.8093165,5.56129198 3.32549233,6.00855987 3.95229205,6.10453461 C4.70367837,6.224821 5.31480591,5.88651551 5.85830869,5.42541766 C6.34871929,4.96272134 6.99513247,4.70151242 7.66914972,4.69367542 C8.67099815,4.66109785 10.1963124,5.02195704 10.84,5.84391408 C11.3584566,6.50548926 11.3835028,7.41515513 11.3860074,8.25465394 C11.3860074,9.02899761 11.3860074,9.80083532 11.3860074,10.575179 C11.3860074,11.2618138 11.3860074,11.9760143 11.7065989,12.5799523 C12.0271904,13.1838902 12.7334935,13.6550119 13.3871996,13.4470167 C14.1636322,13.19642 14.5042606,12.1689737 15.2957209,11.9835322 C15.8993346,11.8457041 16.5029482,12.2792363 16.7609242,12.8330549 Z" id="Path"></path>
                    <path d="M24.3624492,10.2844869 C24.1936647,10.7599123 23.9255607,11.1938932 23.5759982,11.5575179 C22.559122,12.7821002 21.541411,14.0058473 20.5228651,15.2287589 C19.2379945,16.7749403 17.8754806,18.5642005 17.9756654,20.5363962 C18.0683364,18.7270883 19.3281608,17.0806683 20.5228651,15.6447494 L23.5759982,11.9760143 C23.9250739,11.6110492 24.1930848,11.1763652 24.3624492,10.7004773 C24.4380491,10.3720732 24.4650529,10.0343435 24.442597,9.69809069 C24.4400547,9.89610784 24.4131359,10.0930571 24.3624492,10.2844869 Z" id="Path"></path>
                    <path d="M16.4002588,19.9149165 C16.3508942,19.7519122 16.3206357,19.583719 16.3100924,19.4137232 C16.283841,19.720741 16.3144077,20.0299702 16.4002588,20.325895 C16.610647,20.997494 17.3745564,21.5513126 18.0157394,21.2631265 C17.998207,21.1278043 17.9881885,20.9924821 17.9831793,20.8571599 C17.3369871,21.1227924 16.5956192,20.5764916 16.4002588,19.9149165 Z" id="Path"></path>
                </g>
                <path d="M205.313808,191.543556 C205.313808,191.543556 206.280591,193.245107 209.782052,191.746539" id="Path" fill="#000000" opacity="0.1"></path>
                <path d="M234.928447,191.962053 C234.928447,191.962053 237.94902,195.520525 241.756044,193.127327" id="Path" fill="#000000" opacity="0.1"></path>
                <path d="M243.722172,149.869332 C243.722172,149.869332 241.58573,151.205012 241.518105,151.969332 C241.450481,152.733652 242.620139,151.413007 242.620139,151.413007 L243.722172,149.869332 Z" id="Path" fill="#000000" opacity="0.1"></path>
                <path d="M244.571238,160.101193 C243.828919,160.719521 242.906062,161.080068 241.941386,161.12864 C240.345943,161.198807 240.478688,163.281265 241.52061,162.654773 C242.562532,162.028282 244.571238,160.101193 244.571238,160.101193 Z" id="Path" fill="#000000" opacity="0.1"></path>
                <path d="M244.969473,161.436874 C244.969473,161.436874 243.945083,166.473866 243.113549,165.501551" id="Path" fill="#000000" opacity="0.1"></path>
                <path d="M34.2531978,184.867661 C34.2531978,184.867661 35.6282348,186.666945 33.617024,189.378401 C31.6058133,192.089857 29.9477542,194.390334 30.6114787,196.084368 C30.6114787,196.084368 33.6445749,191.037351 36.1216451,190.967184 C38.5987153,190.897017 36.9707116,187.902387 34.2531978,184.867661 Z" id="Path" fill="#4291EB"></path>
                <path d="M34.2531978,184.867661 C34.3737028,185.040905 34.4682107,185.230867 34.5337153,185.431504 C36.9431608,188.263246 38.2280314,190.907041 35.9112569,190.974702 C33.7547782,191.034845 31.1524769,194.896539 30.5463586,195.87136 C30.5667948,195.94606 30.5910379,196.019665 30.6189926,196.091885 C30.6189926,196.091885 33.6520887,191.044869 36.129159,190.974702 C38.6062292,190.904535 36.9707116,187.902387 34.2531978,184.867661 Z" id="Path" fill="#000000" opacity="0.1"></path>
                <path d="M36.8104159,187.160621 C36.8104159,187.79463 36.7402865,188.308353 36.6526248,188.308353 C36.564963,188.308353 36.492329,187.79463 36.492329,187.160621 C36.492329,186.526611 36.5824954,186.827327 36.6701571,186.827327 C36.7578189,186.827327 36.8104159,186.531623 36.8104159,187.160621 Z" id="Path" fill="#FFD037"></path>
                <path d="M37.6895379,187.917422 C37.133512,188.220644 36.6476155,188.40358 36.605037,188.328401 C36.5624584,188.253222 36.9807301,187.942482 37.536756,187.63926 C38.0927819,187.336038 37.8723752,187.556563 37.9149538,187.63926 C37.9575323,187.721957 38.2455638,187.6142 37.6895379,187.917422 Z" id="Path" fill="#FFD037"></path>
                <path d="M26.9847874,184.867661 C26.9847874,184.867661 25.6097505,186.666945 27.6209612,189.378401 C29.6321719,192.089857 31.2902311,194.390334 30.6265065,196.084368 C30.6265065,196.084368 27.5934104,191.037351 25.1163401,190.967184 C22.6392699,190.897017 24.2697782,187.902387 26.9847874,184.867661 Z" id="Path" fill="#4291EB"></path>
                <path d="M26.9847874,184.867661 C26.8653837,185.041556 26.7709573,185.231354 26.7042699,185.431504 C24.2948244,188.263246 23.0099538,190.907041 25.3267283,190.974702 C27.4857116,191.034845 30.0855083,194.896539 30.6916266,195.87136 C30.6723095,195.946393 30.6480451,196.020063 30.6189926,196.091885 C30.6189926,196.091885 27.5858965,191.044869 25.1088262,190.974702 C22.631756,190.904535 24.2697782,187.902387 26.9847874,184.867661 Z" id="Path" fill="#000000" opacity="0.1"></path>
                <path d="M24.4275693,187.160621 C24.4275693,187.79463 24.4976987,188.308353 24.5853604,188.308353 C24.6730222,188.308353 24.7456562,187.79463 24.7456562,187.160621 C24.7456562,186.526611 24.6554898,186.827327 24.5678281,186.827327 C24.4801664,186.827327 24.4275693,186.531623 24.4275693,187.160621 Z" id="Path" fill="#FFD037"></path>
                <path d="M23.5509519,187.917422 C24.1069778,188.220644 24.5903697,188.40358 24.6329482,188.328401 C24.6755268,188.253222 24.2572551,187.942482 23.7012292,187.63926 C23.1452033,187.336038 23.36561,187.556563 23.3230314,187.63926 C23.2804529,187.721957 22.9949261,187.6142 23.5509519,187.917422 Z" id="Path" fill="#FFD037"></path>
                <path d="M24.865878,195.856325 C24.865878,195.856325 28.712976,195.738544 29.8751201,194.911575 C31.0372643,194.084606 35.7910351,193.099761 36.0790665,194.425418 C36.367098,195.751074 41.859732,201.013604 37.516719,201.048687 C33.1737061,201.083771 27.4256007,200.372076 26.2684658,199.665394 C25.1113309,198.958711 24.865878,195.856325 24.865878,195.856325 Z" id="Path" fill="#A8A8A8"></path>
                <path d="M37.5918577,200.587589 C33.2488447,200.622673 27.5007394,199.910979 26.3436044,199.204296 C25.4619778,198.668019 25.1113309,196.740931 24.9936137,195.851313 L24.865878,195.851313 C24.865878,195.851313 25.1163401,198.956205 26.2659612,199.660382 C27.4155823,200.364558 33.1712015,201.078759 37.5142144,201.043675 C38.766525,201.043675 39.202329,200.587589 39.1772828,199.926014 C39.004464,200.329475 38.5260813,200.580072 37.5918577,200.587589 Z" id="Path" fill="#000000" opacity="0.2"></path>
            </g>
        </g>
    </g>
</svg>