<?xml version="1.0" encoding="UTF-8"?>
<svg width="27px" height="41px" viewBox="0 0 27 41" version="1.1" xmlns="http://www.w3.org/2000/svg" xmlns:xlink="http://www.w3.org/1999/xlink">
    <!-- Generator: Sketch 52.5 (67469) - http://www.bohemiancoding.com/sketch -->
    <title>女士</title>
    <desc>Created with Sketch.</desc>
    <g id="长报告" stroke="none" stroke-width="1" fill="none" fill-rule="evenodd">
        <g id="报告" transform="translate(-602.000000, -2431.000000)" fill-rule="nonzero">
            <g id="Group-2" transform="translate(341.000000, 2417.000000)">
                <g id="女士" transform="translate(261.300000, 14.600000)">
                    <path d="M25.9817863,40.2820089 L25.9817863,32.0960714 C25.9817863,26.4828571 20.1352014,21.8861384 12.9908932,21.8861384 C5.84658494,21.8861384 0,26.4783594 0,32.0960714 L0,40.2820089 L25.9817863,40.2820089 Z" id="Shape" fill="#EB3850"></path>
                    <path d="M12.8816112,22.8171763 C7.87285464,22.8171763 1.64833625,21.0045759 1.64833625,18.0135603 C1.64833625,18.0135603 6.1061296,2.17242187 7.79544658,2.17242187 L17.9859895,2.17242187 C19.6753065,2.17242187 24.1330998,18.1484933 24.1330998,18.1484933 C24.1330998,20.8921317 17.8903678,22.8171763 12.8816112,22.8171763 Z" id="Shape" fill="#694B4B"></path>
                    <path d="M7.07600701,16.0570312 L4.63082312,16.0570312 C3.42416813,16.0570312 2.44063047,15.0810156 2.44063047,13.8936049 C2.44063047,12.7016964 3.42872154,11.7301786 4.63082312,11.7301786 L7.07600701,11.7301786 C8.282662,11.7301786 9.26619965,12.7061942 9.26619965,13.8936049 C9.26619965,15.0810156 8.27810858,16.0570312 7.07600701,16.0570312 Z M20.98669,15.8501339 L18.5415061,15.8501339 C17.3348511,15.8501339 16.3513135,14.8741183 16.3513135,13.6867076 C16.3513135,12.4947991 17.3394046,11.5232812 18.5415061,11.5232812 L20.98669,11.5232812 C22.193345,11.5232812 23.1768827,12.4992969 23.1768827,13.6867076 C23.1814361,14.8741183 22.193345,15.8501339 20.98669,15.8501339 Z" id="Shape" fill="#F7C9A4"></path>
                    <path d="M24.1604203,40.2820089 L24.1604203,31.9836272 C24.1604203,26.2939509 19.1334501,21.6387612 12.9908932,21.6387612 C6.84833625,21.6387612 1.82136602,26.2939509 1.82136602,31.9836272 L1.82136602,40.2820089 L24.1604203,40.2820089 Z" id="Shape" fill="#F66472"></path>
                    <path d="M18.8283713,23.3973884 C18.8283713,32.7212612 13.0364273,40.2775112 13.0364273,40.2775112 C13.0364273,40.2775112 7.24448336,32.7212612 7.24448336,23.3973884 C7.24448336,14.0735156 9.83537653,6.51726563 13.0364273,6.51726563 C16.2374781,6.51726563 18.8283713,14.0780134 18.8283713,23.3973884 Z" id="Shape" fill="#EFF2F4"></path>
                    <path d="M13.0227671,24.490346 C11.7295972,24.490346 10.6732049,23.4468638 10.6732049,22.1694978 L10.6732049,18.3778795 C10.6732049,17.1005134 11.7295972,16.0570313 13.0227671,16.0570313 C14.315937,16.0570313 15.3723292,17.1005134 15.3723292,18.3778795 L15.3723292,22.1694978 C15.3723292,23.4468638 14.315937,24.490346 13.0227671,24.490346 Z" id="Shape" fill="#F7C9A4"></path>
                    <path d="M13.0227671,20.6492522 C8.67880911,20.6492522 5.12259194,18.3059152 5.12259194,14.0150446 L5.12259194,8.32087054 C5.12259194,4.03 8.67880911,0.517243304 13.0227671,0.517243304 C17.366725,0.517243304 20.9229422,4.03 20.9229422,8.32087054 L20.9229422,14.0195424 C20.9229422,18.3059152 17.366725,20.6492522 13.0227671,20.6492522 Z" id="Shape" fill="#FFD9B6"></path>
                    <path d="M15.8140105,8.1994308 C14.1246935,11.7301786 5.87390543,12.458817 2.95061296,13.5247879 L2.95061296,9.54426339 C2.95061296,4.86208705 7.56777583,1.03448661 11.9845884,1.03448661 L13.7376532,1.03448661 C18.1544658,1.03448661 22.7716287,4.86208705 22.7716287,9.54426339 L22.7716287,13.5247879 C16.3513135,11.9235826 15.8140105,8.1994308 15.8140105,8.1994308 Z" id="Shape" fill="#F7CCA5"></path>
                    <path d="M15.5817863,6.00002232 C15.1628722,10.0300223 5.78283713,11.4558147 2.95061296,12.4903013 L2.95061296,8.50977679 C2.95061296,3.82760045 7.56777583,0 11.9845884,0 L13.7376532,0 C18.1544658,0 22.7716287,3.82760045 22.7716287,8.50977679 L22.7716287,12.4903013 C17.4486865,11.2938951 15.5817863,6.00002232 15.5817863,6.00002232 Z" id="Shape" fill="#694B4B"></path>
                    <path d="M13.0364273,40.2820089 L12.5401051,39.5893527 L12.5401051,24.9176339 C12.5401051,24.6477679 12.7632224,24.4273772 13.0364273,24.4273772 C13.3096322,24.4273772 13.5327496,24.6477679 13.5327496,24.9176339 L13.5327496,39.5893527 L13.0364273,40.2820089 Z" id="Shape" fill="#E5E5DB"></path>
                    <path d="M8.32819615,13.0345312 C8.32819615,13.6257348 8.71961375,14.105 9.20245184,14.105 C9.68528992,14.105 10.0767075,13.6257348 10.0767075,13.0345312 C10.0767075,12.6520896 9.91007536,12.2986989 9.6395797,12.1074781 C9.36908404,11.9162572 9.03581964,11.9162572 8.76532398,12.1074781 C8.49482832,12.2986989 8.32819613,12.6520896 8.32819615,13.0345312 Z" id="Shape" fill="#694B4B"></path>
                    <path d="M15.9323993,13.0345312 C15.9323993,13.4169729 16.0990315,13.7703636 16.3695271,13.9615844 C16.6400228,14.1528053 16.9732872,14.1528053 17.2437829,13.9615844 C17.5142785,13.7703636 17.6809107,13.4169729 17.6809107,13.0345312 C17.6809107,12.6520896 17.5142785,12.2986989 17.2437829,12.1074781 C16.9732872,11.9162572 16.6400228,11.9162572 16.3695271,12.1074781 C16.0990315,12.2986989 15.9323993,12.6520896 15.9323993,13.0345312 Z" id="Shape" fill="#694B4B"></path>
                    <path d="M5.16357268,40.2820089 L5.16357268,35.2445089 C5.16357268,34.8981808 4.87670753,34.6148214 4.52609457,34.6148214 C4.17548161,34.6148214 3.88861646,34.8981808 3.88861646,35.2445089 L3.88861646,40.2775112 L5.16357268,40.2775112 L5.16357268,40.2820089 Z M22.0931699,40.2820089 L22.0931699,35.2445089 C22.0931699,34.8981808 21.8063047,34.6148214 21.4556918,34.6148214 C21.1050788,34.6148214 20.8182137,34.8981808 20.8182137,35.2445089 L20.8182137,40.2775112 L22.0931699,40.2775112 L22.0931699,40.2820089 Z" id="Shape" fill="#EB3850"></path>
                </g>
            </g>
        </g>
    </g>
</svg>