<?xml version="1.0" encoding="UTF-8"?>
<svg width="60px" height="60px" viewBox="0 0 60 60" version="1.1" xmlns="http://www.w3.org/2000/svg" xmlns:xlink="http://www.w3.org/1999/xlink">
    <!-- Generator: Sketch 52.5 (67469) - http://www.bohemiancoding.com/sketch -->
    <title>Group 5</title>
    <desc>Created with Sketch.</desc>
    <g id="长报告" stroke="none" stroke-width="1" fill="none" fill-rule="evenodd">
        <g id="报告" transform="translate(-503.000000, -507.000000)">
            <g id="Group-5" transform="translate(503.000000, 507.000000)">
                <ellipse id="Oval" fill="#FFFFFF" cx="30.2120983" cy="30.0060134" rx="29.5173579" ry="29.5148584"></ellipse>
                <path d="M30.2381185,59.637953 C36.0053312,59.6469317 41.6476402,57.9584542 46.4617369,54.7829878 C45.374091,48.8404687 41.2342711,48.4996324 41.2342711,48.4996324 L18.4015123,48.4996324 C18.4015123,48.4996324 14.4984766,48.8196542 13.2755254,54.2886451 C18.2412311,57.7812407 24.1670084,59.6499884 30.2381185,59.637953 Z" id="Path" fill="#6DB2F7"></path>
                <ellipse id="Oval" fill="#333333" cx="29.9258757" cy="29.3841824" rx="14.2486823" ry="14.2474757"></ellipse>
                <path d="M25.3280996,41.251008 L34.4586011,41.251008 L34.4586011,48.5542703 C34.4586011,51.0746567 32.4152512,53.1178336 29.8946514,53.1178336 C28.6842167,53.1178336 27.5233582,52.6370309 26.6674516,51.7811968 C25.811545,50.9253627 25.3307017,49.7646025 25.3307017,48.5542703 L25.3307017,41.251008 L25.3280996,41.251008 Z" id="Path" fill="#000000" opacity="0.1"></path>
                <path d="M26.1997776,40.9127735 L33.5869232,40.9127735 C34.0683376,40.9127735 34.4586011,41.303004 34.4586011,41.7843777 L34.4586011,48.2212394 C34.4586011,50.7416258 32.4152512,52.7848027 29.8946514,52.7848027 C28.6837659,52.785493 27.5222388,52.3049952 26.6657694,51.4490862 C25.8092999,50.5931772 25.3280994,49.4320226 25.3280996,48.2212394 L25.3280996,41.7817759 C25.3280996,41.3004022 25.7183632,40.9101717 26.1997776,40.9101717 L26.1997776,40.9127735 Z" id="Path" fill="#FDB797"></path>
                <path d="M25.3463138,44.6983976 C28.2888622,45.7980867 31.5280464,45.8073169 34.4768153,44.7244156 L34.4768153,43.5952329 L25.3463138,43.5952329 L25.3463138,44.6983976 Z" id="Path" fill="#000000" opacity="0.1"></path>
                <ellipse id="Oval" fill="#FDB797" cx="29.9258757" cy="32.2253518" rx="13.0855777" ry="13.0844696"></ellipse>
                <path d="M20.6080285,20.322101 C20.6080285,20.322101 26.1217169,31.5098558 41.6844212,25.0053472 L38.0624041,19.3256102 L31.6432114,17.0204124 L20.6080285,20.322101 Z" id="Path" fill="#000000" opacity="0.1"></path>
                <path d="M20.6080285,20.1581874 C20.6080285,20.1581874 26.1217169,31.3459422 41.6844212,24.8414336 L38.0624041,19.1616966 L31.6432114,16.8564988 L20.6080285,20.1581874 Z" id="Path" fill="#333333"></path>
                <path d="M20.55859,19.3984607 C20.9303184,18.2476472 21.5727903,17.2028265 22.4320471,16.3517489 C25.0054487,13.8071851 29.2259313,13.2712136 31.3908151,10.3676009 C31.6286817,10.783163 31.6795335,11.2799792 31.5307865,11.7351065 C31.3820395,12.1902338 31.0475923,12.561146 30.6102079,12.7560565 C32.691827,12.7430475 35.0882909,12.5609213 36.2592016,10.8541382 C36.850699,12.2307863 36.5964602,13.8249614 35.6060936,14.9493768 C37.4431224,15.0326345 39.4050484,16.2788984 39.5247415,18.1157716 C39.6028022,19.3386193 38.8378072,20.4964218 37.830824,21.1989087 C36.8238408,21.9013957 35.6086957,22.2214175 34.4117647,22.4868014 C30.9198488,23.2621389 18.2792172,26.490977 20.55859,19.3984607 Z" id="Path" fill="#333333"></path>
                <ellipse id="Oval" fill="#FDB797" cx="16.835094" cy="32.2123428" rx="1.21774714" ry="2.28178163"></ellipse>
                <ellipse id="Oval" fill="#FDB797" cx="43.0088513" cy="32.2123428" rx="1.21774714" ry="2.28178163"></ellipse>
            </g>
        </g>
    </g>
</svg>