<?xml version="1.0" encoding="UTF-8"?>
<svg width="30px" height="41px" viewBox="0 0 30 41" version="1.1" xmlns="http://www.w3.org/2000/svg" xmlns:xlink="http://www.w3.org/1999/xlink">
    <!-- Generator: Sketch 52.5 (67469) - http://www.bohemiancoding.com/sketch -->
    <title>男士</title>
    <desc>Created with Sketch.</desc>
    <g id="长报告" stroke="none" stroke-width="1" fill="none" fill-rule="evenodd">
        <g id="报告" transform="translate(-341.000000, -2431.000000)" fill-rule="nonzero">
            <g id="Group-2" transform="translate(341.000000, 2417.000000)">
                <g id="男士" transform="translate(0.000000, 14.600000)">
                    <path d="M18.003617,26.230902 L11.9100152,26.230902 C11.2556687,26.230902 10.7194681,25.7013474 10.7194681,25.0551114 L10.7194681,16.8156013 C10.7194681,16.1693653 11.2556687,15.6398107 11.9100152,15.6398107 L18.003617,15.6398107 C18.6579635,15.6398107 19.1941641,16.1693653 19.1941641,16.8156013 L19.1941641,25.0551114 C19.1941641,25.7013474 18.6579635,26.230902 18.003617,26.230902 Z" id="Shape" fill="#F7C9A4"></path>
                    <path d="M29.8863678,40.2596102 L29.8863678,32.1771715 C29.8863678,28.4119488 23.170228,25.9167595 14.9636322,25.9167595 C6.75703647,25.9167595 0.0408966565,28.4119488 0.0408966565,32.1771715 L0.0408966565,40.2596102 L29.8863678,40.2596102 Z" id="Shape" fill="#E8E8DD"></path>
                    <path d="M9.0199848,16.0885857 L6.57981763,16.0885857 C5.3756383,16.0885857 4.39411854,15.1147439 4.39411854,13.9299777 C4.39411854,12.7407238 5.38018237,11.7713697 6.57981763,11.7713697 L9.0199848,11.7713697 C10.2241641,11.7713697 11.2056839,12.7452116 11.2056839,13.9299777 C11.2056839,15.1147439 10.2196201,16.0885857 9.0199848,16.0885857 Z M22.9021277,15.8821492 L20.4619605,15.8821492 C19.2577812,15.8821492 18.2762614,14.9083073 18.2762614,13.7235412 C18.2762614,12.5342873 19.2623252,11.5649332 20.4619605,11.5649332 L22.9021277,11.5649332 C24.106307,11.5649332 25.0878267,12.5387751 25.0878267,13.7235412 C25.0923708,14.9083073 24.106307,15.8821492 22.9021277,15.8821492 Z" id="Shape" fill="#F7C9A4"></path>
                    <path d="M28.0687386,40.2596102 L28.0687386,32.1771715 C28.0687386,28.4119488 24.3789514,25.9167595 14.9636322,25.9167595 C5.75734043,25.9167595 1.85852584,28.4119488 1.85852584,32.1771715 L1.85852584,40.2596102 L28.0687386,40.2596102 Z" id="Shape" fill="#F2F2F1"></path>
                    <path d="M14.9545441,21.859833 C10.6194985,21.859833 7.07057751,19.3825947 7.07057751,14.8499666 L7.07057751,8.82740535 C7.07057751,4.29477728 10.6194985,0.583407572 14.9545441,0.583407572 C19.2895897,0.583407572 22.8385106,4.29477728 22.8385106,8.8318931 L22.8385106,14.8499666 C22.8385106,19.3825947 19.2895897,21.859833 14.9545441,21.859833 Z" id="Shape" fill="#FFD9B6"></path>
                    <path d="M10.2696049,13.0728174 C10.2696048,13.4544073 10.4358952,13.8070109 10.7058359,13.9978059 C10.9757765,14.1886008 11.3083572,14.1886008 11.5782979,13.9978059 C11.8482386,13.8070109 12.0145289,13.4544073 12.0145289,13.0728174 C12.0145289,12.4829305 11.6239143,12.0047327 11.1420669,12.0047327 C10.6602194,12.0047327 10.2696049,12.4829305 10.2696049,13.0728174 Z" id="Shape" fill="#694B4B"></path>
                    <path d="M17.8582067,13.0728174 C17.8582067,13.6627042 18.2488212,14.140902 18.7306687,14.140902 C19.2125162,14.140902 19.6031307,13.6627042 19.6031307,13.0728174 C19.6031307,12.4829305 19.2125162,12.0047327 18.7306687,12.0047327 C18.2488212,12.0047327 17.8582067,12.4829305 17.8582067,13.0728174 Z" id="Shape" fill="#694B4B"></path>
                    <path d="M7.11601824,40.2596102 L7.11601824,35.2333296 C7.11601824,34.8877728 6.82974164,34.6050445 6.47984802,34.6050445 C6.12995441,34.6050445 5.84367781,34.8877728 5.84367781,35.2333296 L5.84367781,40.2551225 L7.11601824,40.2551225 L7.11601824,40.2596102 Z M24.0063374,40.2596102 L24.0063374,35.2333296 C24.0063374,34.8877728 23.7200608,34.6050445 23.3701672,34.6050445 C23.0202736,34.6050445 22.733997,34.8877728 22.733997,35.2333296 L22.733997,40.2551225 L24.0063374,40.2551225 L24.0063374,40.2596102 Z" id="Shape" fill="#E5E5DB"></path>
                    <path d="M17.94,26.3655345 L12.0099848,26.3655345 C11.6191945,26.9130401 11.6191945,27.8105902 12.0099848,28.3625835 L14.2593009,31.5129844 C14.6500912,32.06049 15.2953495,32.06049 15.6861398,31.5129844 L17.9354559,28.3625835 C18.3307903,27.8105902 18.3307903,26.9130401 17.94,26.3655345 Z" id="Shape" fill="#99CFFF"></path>
                    <path d="M23.5110334,0.924476615 L12.4689362,0.924476615 C11.1556991,0.924476615 10.0151368,1.80856347 9.47893617,3.08308463 C7.77490881,3.2311804 6.59799392,4.87818486 6.59799392,6.8617706 L7.11601824,12.2201448 L9.72431611,12.2201448 C9.84246201,12.2201448 9.94243161,12.1214143 9.94243161,12.000245 L9.94243161,9.07871938 C9.94243161,8.93959911 10.0424012,8.82291759 10.1650912,8.82291759 L19.7985258,9.75636971 C19.9212158,9.75636971 20.0211854,9.87305122 20.0211854,10.0121715 L20.0211854,11.8297105 C20.0211854,11.9957572 20.1529635,12.1303898 20.3165502,12.1303898 L22.3795593,12.2201448 L22.7021884,12.2201448 C23.5837386,12.2201448 24.3516869,1.88485523 24.3516869,1.88485523 C24.4107599,1.32388641 23.9745289,0.924476615 23.5110334,0.924476615 Z" id="Shape" fill="#F7CCA5"></path>
                    <path d="M24.04269,0.0269265033 L12.5007447,0.0269265033 C11.1693313,0.0269265033 10.0151368,0.893062361 9.4743921,2.14514477 C7.74764438,2.29324053 6.37987842,3.89985523 6.37987842,5.84305122 L7.01604863,11.1071826 L8.90638298,11.1071826 C9.02907295,11.1071826 9.12449848,11.0084521 9.12449848,10.8917706 L9.12449848,8.02858575 C9.12449848,7.88946548 9.22446809,7.77727171 9.35170213,7.77727171 L20.5664742,8.77804009 C20.6891641,8.77804009 20.7936778,8.89023385 20.7936778,9.02935412 L20.7936778,10.8154788 C20.7936778,10.9770379 20.9254559,11.1071826 21.0935866,11.1071826 L23.1884043,11.1071826 C23.7473252,11.1071826 24.8969757,0.96935412 24.8969757,0.96935412 C24.9469605,0.417360802 24.5107295,0.0269265033 24.04269,0.0269265033 Z" id="Shape" fill="#694B4B"></path>
                    <path d="M14.9181915,26.320657 L13.2596049,29.883931 C12.9642401,30.3461693 12.6416109,30.8353341 12.1644833,30.4089978 L7.46591185,27.0117706 C7.10693009,26.6572383 6.74340426,26.3879733 6.88427052,25.9526615 L8.35200608,23.5203007 C8.49287234,23.0849889 8.98817629,22.8471381 9.44712766,22.9952339 L14.3365502,25.2660356 C14.8000456,25.4096437 15.0590578,25.8853452 14.9181915,26.320657 Z" id="Shape" fill="#E8E8DD"></path>
                    <path d="M15.0045289,26.2937305 L16.6358511,29.86598 C16.9266717,30.332706 17.2447568,30.8218708 17.7309726,30.4000223 L22.4522644,27.0342094 C22.8112462,26.6841648 23.1793161,26.4148998 23.0384498,25.979588 L22.0841945,23.6728842 C21.9433283,23.2375724 21.4525684,22.9952339 20.9890729,23.1388419 L15.5861702,25.2346214 C15.1317629,25.3827171 14.8636626,25.8584187 15.0045289,26.2937305 Z" id="Shape" fill="#E8E8DD"></path>
                    <path d="M16.6449392,40.2865367 L13.2868693,40.2865367 C12.9369757,40.2865367 12.6506991,40.1519042 12.6506991,39.9858575 L14.013921,30.7410913 C14.013921,30.5750445 14.3001976,30.440412 14.6500912,30.440412 L15.2817173,30.440412 C15.6316109,30.440412 15.9178875,30.5750445 15.9178875,30.7410913 L17.2811094,39.9858575 C17.2811094,40.1519042 16.9948328,40.2865367 16.6449392,40.2865367 Z" id="Shape" fill="#99CFFF"></path>
                    <path d="M15.6906839,31.4277171 L14.1911398,31.4277171 C14.0548176,31.4277171 13.9412158,31.3155234 13.9412158,31.1808909 C13.9412158,31.0462584 14.0548176,30.9340646 14.1911398,30.9340646 L15.6906839,30.9340646 C15.8270061,30.9340646 15.9406079,31.0462584 15.9406079,31.1808909 C15.9406079,31.3155234 15.8270061,31.4277171 15.6906839,31.4277171 Z" id="Shape" fill="#6DB2F7"></path>
                </g>
            </g>
        </g>
    </g>
</svg>