<?xml version="1.0" encoding="UTF-8"?>
<svg width="149px" height="143px" viewBox="0 0 149 143" version="1.1" xmlns="http://www.w3.org/2000/svg" xmlns:xlink="http://www.w3.org/1999/xlink">
    <!-- Generator: Sketch 52.5 (67469) - http://www.bohemiancoding.com/sketch -->
    <title>Group 2</title>
    <desc>Created with Sketch.</desc>
    <defs>
        <linearGradient x1="49.9918593%" y1="100%" x2="49.9918593%" y2="4.9233837e-15%" id="linearGradient-1">
            <stop stop-color="#808080" stop-opacity="0.25" offset="0%"></stop>
            <stop stop-color="#808080" stop-opacity="0.12" offset="54%"></stop>
            <stop stop-color="#808080" stop-opacity="0.1" offset="100%"></stop>
        </linearGradient>
    </defs>
    <g id="导入" stroke="none" stroke-width="1" fill="none" fill-rule="evenodd">
        <g id="等待拖入" transform="translate(-843.000000, -494.000000)">
            <g id="Group-3" transform="translate(792.000000, 412.000000)">
                <g id="Group-2" transform="translate(51.000000, 82.000000)">
                    <g id="文件-copy-5">
                        <polygon id="Rectangle-path" fill="url(#linearGradient-1)" fill-rule="nonzero" points="0 1.42108547e-14 72.6 1.42108547e-14 72.6 91.3896363 0 91.3896363"></polygon>
                        <polygon id="Rectangle-path" fill="#FFFFFF" fill-rule="nonzero" points="2 2 70.4863083 2 70.4863083 88.15781 2 88.15781"></polygon>
                        <g id="表格" transform="translate(4.000000, 5.000000)">
                            <rect id="Rectangle" fill="#F9F9F9" x="0" y="0" width="64" height="80"></rect>
                            <rect id="Rectangle" fill="#8AE6DC" x="0" y="0" width="64" height="10"></rect>
                            <path d="M15.5,10.9324324 L15.5,78.0675676" id="Line-3" stroke="#CBCBCE" stroke-linecap="square"></path>
                            <path d="M63.5078125,16.5 L1,16.5" id="Line-3" stroke="#CBCBCE" stroke-linecap="square"></path>
                            <path d="M63.5078125,22.5 L1,22.5" id="Line-3-Copy-3" stroke="#CBCBCE" stroke-linecap="square"></path>
                            <path d="M63.5078125,29.5 L1,29.5" id="Line-3" stroke="#CBCBCE" stroke-linecap="square"></path>
                            <path d="M63.5078125,35.5 L1,35.5" id="Line-3-Copy-3" stroke="#CBCBCE" stroke-linecap="square"></path>
                            <path d="M63.5078125,41.5 L1,41.5" id="Line-3-Copy-4" stroke="#CBCBCE" stroke-linecap="square"></path>
                            <path d="M63.5078125,47.5 L1,47.5" id="Line-3-Copy-5" stroke="#CBCBCE" stroke-linecap="square"></path>
                            <path d="M63.5078125,54.5 L1,54.5" id="Line-3-Copy-6" stroke="#CBCBCE" stroke-linecap="square"></path>
                            <path d="M63.5078125,60.5 L1,60.5" id="Line-3-Copy-7" stroke="#CBCBCE" stroke-linecap="square"></path>
                            <path d="M63.5078125,66.5 L1,66.5" id="Line-3-Copy-8" stroke="#CBCBCE" stroke-linecap="square"></path>
                            <path d="M63.5078125,72.5 L1,72.5" id="Line-3-Copy-9" stroke="#CBCBCE" stroke-linecap="square"></path>
                            <path d="M63.5078125,79.5 L1,79.5" id="Line-3-Copy-10" stroke="#CBCBCE" stroke-linecap="square"></path>
                            <path d="M32.5,10.9324324 L32.5,78.0675676" id="Line-3-Copy" stroke="#CBCBCE" stroke-linecap="square"></path>
                            <path d="M48.5,10.9324324 L48.5,78.0675676" id="Line-3-Copy-2" stroke="#CBCBCE" stroke-linecap="square"></path>
                        </g>
                    </g>
                    <g id="文件-copy-6" transform="translate(37.000000, 23.000000)">
                        <polygon id="Rectangle-path" fill="url(#linearGradient-1)" fill-rule="nonzero" points="0 1.42108547e-14 72.6 1.42108547e-14 72.6 91.3896363 0 91.3896363"></polygon>
                        <polygon id="Rectangle-path" fill="#FFFFFF" fill-rule="nonzero" points="2 2 70.4863083 2 70.4863083 88.15781 2 88.15781"></polygon>
                        <g id="表格" transform="translate(4.000000, 5.000000)">
                            <rect id="Rectangle" fill="#F9F9F9" x="0" y="0" width="64" height="80"></rect>
                            <rect id="Rectangle" fill="#8AE6DC" x="0" y="0" width="64" height="10"></rect>
                            <path d="M15.5,10.9324324 L15.5,78.0675676" id="Line-3" stroke="#CBCBCE" stroke-linecap="square"></path>
                            <path d="M63.5078125,16.5 L1,16.5" id="Line-3" stroke="#CBCBCE" stroke-linecap="square"></path>
                            <path d="M63.5078125,22.5 L1,22.5" id="Line-3-Copy-3" stroke="#CBCBCE" stroke-linecap="square"></path>
                            <path d="M63.5078125,29.5 L1,29.5" id="Line-3" stroke="#CBCBCE" stroke-linecap="square"></path>
                            <path d="M63.5078125,35.5 L1,35.5" id="Line-3-Copy-3" stroke="#CBCBCE" stroke-linecap="square"></path>
                            <path d="M63.5078125,41.5 L1,41.5" id="Line-3-Copy-4" stroke="#CBCBCE" stroke-linecap="square"></path>
                            <path d="M63.5078125,47.5 L1,47.5" id="Line-3-Copy-5" stroke="#CBCBCE" stroke-linecap="square"></path>
                            <path d="M63.5078125,54.5 L1,54.5" id="Line-3-Copy-6" stroke="#CBCBCE" stroke-linecap="square"></path>
                            <path d="M63.5078125,60.5 L1,60.5" id="Line-3-Copy-7" stroke="#CBCBCE" stroke-linecap="square"></path>
                            <path d="M63.5078125,66.5 L1,66.5" id="Line-3-Copy-8" stroke="#CBCBCE" stroke-linecap="square"></path>
                            <path d="M63.5078125,72.5 L1,72.5" id="Line-3-Copy-9" stroke="#CBCBCE" stroke-linecap="square"></path>
                            <path d="M63.5078125,79.5 L1,79.5" id="Line-3-Copy-10" stroke="#CBCBCE" stroke-linecap="square"></path>
                            <path d="M32.5,10.9324324 L32.5,78.0675676" id="Line-3-Copy" stroke="#CBCBCE" stroke-linecap="square"></path>
                            <path d="M48.5,10.9324324 L48.5,78.0675676" id="Line-3-Copy-2" stroke="#CBCBCE" stroke-linecap="square"></path>
                        </g>
                    </g>
                    <g id="文件-copy-7" transform="translate(76.000000, 51.000000)">
                        <polygon id="Rectangle-path" fill="url(#linearGradient-1)" fill-rule="nonzero" points="0 1.42108547e-14 72.6 1.42108547e-14 72.6 91.3896363 0 91.3896363"></polygon>
                        <polygon id="Rectangle-path" fill="#FFFFFF" fill-rule="nonzero" points="2 2 70.4863083 2 70.4863083 88.15781 2 88.15781"></polygon>
                        <g id="表格" transform="translate(4.000000, 5.000000)">
                            <rect id="Rectangle" fill="#F9F9F9" x="0" y="0" width="64" height="80"></rect>
                            <rect id="Rectangle" fill="#8AE6DC" x="0" y="0" width="64" height="10"></rect>
                            <path d="M15.5,10.9324324 L15.5,78.0675676" id="Line-3" stroke="#CBCBCE" stroke-linecap="square"></path>
                            <path d="M63.5078125,16.5 L1,16.5" id="Line-3" stroke="#CBCBCE" stroke-linecap="square"></path>
                            <path d="M63.5078125,22.5 L1,22.5" id="Line-3-Copy-3" stroke="#CBCBCE" stroke-linecap="square"></path>
                            <path d="M63.5078125,29.5 L1,29.5" id="Line-3" stroke="#CBCBCE" stroke-linecap="square"></path>
                            <path d="M63.5078125,35.5 L1,35.5" id="Line-3-Copy-3" stroke="#CBCBCE" stroke-linecap="square"></path>
                            <path d="M63.5078125,41.5 L1,41.5" id="Line-3-Copy-4" stroke="#CBCBCE" stroke-linecap="square"></path>
                            <path d="M63.5078125,47.5 L1,47.5" id="Line-3-Copy-5" stroke="#CBCBCE" stroke-linecap="square"></path>
                            <path d="M63.5078125,54.5 L1,54.5" id="Line-3-Copy-6" stroke="#CBCBCE" stroke-linecap="square"></path>
                            <path d="M63.5078125,60.5 L1,60.5" id="Line-3-Copy-7" stroke="#CBCBCE" stroke-linecap="square"></path>
                            <path d="M63.5078125,66.5 L1,66.5" id="Line-3-Copy-8" stroke="#CBCBCE" stroke-linecap="square"></path>
                            <path d="M63.5078125,72.5 L1,72.5" id="Line-3-Copy-9" stroke="#CBCBCE" stroke-linecap="square"></path>
                            <path d="M63.5078125,79.5 L1,79.5" id="Line-3-Copy-10" stroke="#CBCBCE" stroke-linecap="square"></path>
                            <path d="M32.5,10.9324324 L32.5,78.0675676" id="Line-3-Copy" stroke="#CBCBCE" stroke-linecap="square"></path>
                            <path d="M48.5,10.9324324 L48.5,78.0675676" id="Line-3-Copy-2" stroke="#CBCBCE" stroke-linecap="square"></path>
                        </g>
                    </g>
                </g>
            </g>
        </g>
    </g>
</svg>