<?xml version="1.0" encoding="UTF-8"?>
<svg width="20px" height="31px" viewBox="0 0 20 31" version="1.1" xmlns="http://www.w3.org/2000/svg" xmlns:xlink="http://www.w3.org/1999/xlink">
    <!-- Generator: Sketch 53.1 (72631) - https://sketchapp.com -->
    <title>女士</title>
    <desc>Created with Sketch.</desc>
    <g id="风控报告" stroke="none" stroke-width="1" fill="none" fill-rule="evenodd">
        <g id="整体报告-copy" transform="translate(-1331.000000, -237.000000)" fill-rule="nonzero">
            <g id="Group-2" transform="translate(1130.000000, 225.000000)">
                <g id="女士" transform="translate(201.000000, 12.000000)">
                    <path d="M19.9859895,30.9861607 L19.9859895,24.6892857 C19.9859895,20.3714286 15.4886165,16.8354911 9.99299475,16.8354911 C4.49737303,16.8354911 0,20.3679687 0,24.6892857 L0,30.9861607 L19.9859895,30.9861607 Z" id="Shape" fill="#EB3850"></path>
                    <path d="M9.9089317,17.5516741 C6.05604203,17.5516741 1.26795096,16.1573661 1.26795096,13.8565848 C1.26795096,13.8565848 4.69702277,1.67109375 5.99649737,1.67109375 L13.8353765,1.67109375 C15.1348511,1.67109375 18.5639229,13.9603795 18.5639229,13.9603795 C18.5639229,16.0708705 13.7618214,17.5516741 9.9089317,17.5516741 Z" id="Shape" fill="#694B4B"></path>
                    <path d="M5.44308231,12.3515625 L3.56217163,12.3515625 C2.63397548,12.3515625 1.87740806,11.6007812 1.87740806,10.6873884 C1.87740806,9.77053571 2.63747811,9.02321429 3.56217163,9.02321429 L5.44308231,9.02321429 C6.37127846,9.02321429 7.12784588,9.77399554 7.12784588,10.6873884 C7.12784588,11.6007812 6.36777583,12.3515625 5.44308231,12.3515625 Z M16.1436077,12.1924107 L14.262697,12.1924107 C13.3345009,12.1924107 12.5779335,11.4416295 12.5779335,10.5282366 C12.5779335,9.61138393 13.3380035,8.8640625 14.262697,8.8640625 L16.1436077,8.8640625 C17.0718039,8.8640625 17.8283713,9.61484375 17.8283713,10.5282366 C17.8318739,11.4416295 17.0718039,12.1924107 16.1436077,12.1924107 Z" id="Shape" fill="#F7C9A4"></path>
                    <path d="M18.5849387,30.9861607 L18.5849387,24.6027902 C18.5849387,20.2261161 14.7180385,16.6452009 9.99299475,16.6452009 C5.26795096,16.6452009 1.40105079,20.2261161 1.40105079,24.6027902 L1.40105079,30.9861607 L18.5849387,30.9861607 Z" id="Shape" fill="#F66472"></path>
                    <path d="M14.4833625,17.9979911 C14.4833625,25.1702009 10.028021,30.9827009 10.028021,30.9827009 C10.028021,30.9827009 5.57267951,25.1702009 5.57267951,17.9979911 C5.57267951,10.8257813 7.56567426,5.01328125 10.028021,5.01328125 C12.4903678,5.01328125 14.4833625,10.8292411 14.4833625,17.9979911 Z" id="Shape" fill="#EFF2F4"></path>
                    <path d="M10.0175131,18.8387277 C9.02276708,18.8387277 8.21015762,18.0360491 8.21015762,17.0534598 L8.21015762,14.1368304 C8.21015762,13.1542411 9.02276708,12.3515625 10.0175131,12.3515625 C11.0122592,12.3515625 11.8248687,13.1542411 11.8248687,14.1368304 L11.8248687,17.0534598 C11.8248687,18.0360491 11.0122592,18.8387277 10.0175131,18.8387277 Z" id="Shape" fill="#F7C9A4"></path>
                    <path d="M10.0175131,15.8840402 C6.67600701,15.8840402 3.94045534,14.0814732 3.94045534,10.7808036 L3.94045534,6.40066964 C3.94045534,3.1 6.67600701,0.397879464 10.0175131,0.397879464 C13.3590193,0.397879464 16.0945709,3.1 16.0945709,6.40066964 L16.0945709,10.7842634 C16.0945709,14.0814732 13.3590193,15.8840402 10.0175131,15.8840402 Z" id="Shape" fill="#FFD9B6"></path>
                    <path d="M12.1646235,6.30725446 C10.8651489,9.02321429 4.51838879,9.58370536 2.26970228,10.403683 L2.26970228,7.34174107 C2.26970228,3.74006696 5.82136602,0.795758929 9.21891419,0.795758929 L10.5674256,0.795758929 C13.9649737,0.795758929 17.5166375,3.74006696 17.5166375,7.34174107 L17.5166375,10.403683 C12.5779335,9.17198661 12.1646235,6.30725446 12.1646235,6.30725446 Z" id="Shape" fill="#F7CCA5"></path>
                    <path d="M11.9859895,4.61540179 C11.6637478,7.71540179 4.44833625,8.81216518 2.26970228,9.60792411 L2.26970228,6.54598214 C2.26970228,2.94430804 5.82136602,0 9.21891419,0 L10.5674256,0 C13.9649737,0 17.5166375,2.94430804 17.5166375,6.54598214 L17.5166375,9.60792411 C13.4220665,8.68761161 11.9859895,4.61540179 11.9859895,4.61540179 Z" id="Shape" fill="#694B4B"></path>
                    <path d="M10.028021,30.9861607 L9.64623468,30.4533482 L9.64623468,19.1674107 C9.64623468,18.9598214 9.8178634,18.7902902 10.028021,18.7902902 C10.2381786,18.7902902 10.4098074,18.9598214 10.4098074,19.1674107 L10.4098074,30.4533482 L10.028021,30.9861607 Z" id="Shape" fill="#E5E5DB"></path>
                    <path d="M6.40630473,10.0265625 C6.40630473,10.4813345 6.70739519,10.85 7.07880911,10.85 C7.45022302,10.85 7.75131349,10.4813345 7.75131349,10.0265625 C7.7513135,9.7323766 7.62313489,9.46053762 7.41506131,9.31344467 C7.20698772,9.16635171 6.95063049,9.16635171 6.74255691,9.31344467 C6.53448332,9.46053762 6.40630471,9.7323766 6.40630473,10.0265625 L6.40630473,10.0265625 Z" id="Shape" fill="#694B4B"></path>
                    <path d="M12.2556918,10.0265625 C12.2556918,10.3207484 12.3838704,10.5925874 12.5919439,10.7396803 C12.8000175,10.8867733 13.0563748,10.8867733 13.2644483,10.7396803 C13.4725219,10.5925874 13.6007005,10.3207484 13.6007005,10.0265625 C13.6007005,9.7323766 13.4725219,9.46053762 13.2644483,9.31344467 C13.0563748,9.16635171 12.8000175,9.16635171 12.5919439,9.31344467 C12.3838704,9.46053762 12.2556918,9.7323766 12.2556918,10.0265625 L12.2556918,10.0265625 Z" id="Shape" fill="#694B4B"></path>
                    <path d="M3.97197898,30.9861607 L3.97197898,27.1111607 C3.97197898,26.8447545 3.75131349,26.6267857 3.48161121,26.6267857 C3.21190893,26.6267857 2.99124343,26.8447545 2.99124343,27.1111607 L2.99124343,30.9827009 L3.97197898,30.9827009 L3.97197898,30.9861607 Z M16.9947461,30.9861607 L16.9947461,27.1111607 C16.9947461,26.8447545 16.7740806,26.6267857 16.5043783,26.6267857 C16.234676,26.6267857 16.0140105,26.8447545 16.0140105,27.1111607 L16.0140105,30.9827009 L16.9947461,30.9827009 L16.9947461,30.9861607 Z" id="Shape" fill="#EB3850"></path>
                </g>
            </g>
        </g>
    </g>
</svg>