<?xml version="1.0" encoding="UTF-8"?>
<svg width="23px" height="31px" viewBox="0 0 23 31" version="1.1" xmlns="http://www.w3.org/2000/svg" xmlns:xlink="http://www.w3.org/1999/xlink">
    <!-- Generator: Sketch 53.1 (72631) - https://sketchapp.com -->
    <title>男士</title>
    <desc>Created with Sketch.</desc>
    <g id="风控报告" stroke="none" stroke-width="1" fill="none" fill-rule="evenodd">
        <g id="整体报告-copy" transform="translate(-1130.000000, -237.000000)" fill-rule="nonzero">
            <g id="Group-2" transform="translate(1130.000000, 225.000000)">
                <g id="男士" transform="translate(0.000000, 12.000000)">
                    <path d="M13.8489362,20.1776169 L9.16155015,20.1776169 C8.65820669,20.1776169 8.24574468,19.7702673 8.24574468,19.2731626 L8.24574468,12.935078 C8.24574468,12.4379733 8.65820669,12.0306236 9.16155015,12.0306236 L13.8489362,12.0306236 C14.3522796,12.0306236 14.7647416,12.4379733 14.7647416,12.935078 L14.7647416,19.2731626 C14.7647416,19.7702673 14.3522796,20.1776169 13.8489362,20.1776169 Z" id="Shape" fill="#F7C9A4"></path>
                    <path d="M22.9895137,30.968931 L22.9895137,24.7516704 C22.9895137,21.8553452 17.8232523,19.9359688 11.5104863,19.9359688 C5.19772036,19.9359688 0.0314589666,21.8553452 0.0314589666,24.7516704 L0.0314589666,30.968931 L22.9895137,30.968931 Z" id="Shape" fill="#E8E8DD"></path>
                    <path d="M6.93844985,12.3758352 L5.06139818,12.3758352 C4.13510638,12.3758352 3.38009119,11.6267261 3.38009119,10.7153675 C3.38009119,9.80055679 4.13860182,9.05489978 5.06139818,9.05489978 L6.93844985,9.05489978 C7.86474164,9.05489978 8.61975684,9.80400891 8.61975684,10.7153675 C8.61975684,11.6267261 7.8612462,12.3758352 6.93844985,12.3758352 Z M17.6170213,12.2170379 L15.7399696,12.2170379 C14.8136778,12.2170379 14.0586626,11.4679287 14.0586626,10.5565702 C14.0586626,9.64175947 14.8171733,8.89610245 15.7399696,8.89610245 L17.6170213,8.89610245 C18.5433131,8.89610245 19.2983283,9.64521158 19.2983283,10.5565702 C19.3018237,11.4679287 18.5433131,12.2170379 17.6170213,12.2170379 Z" id="Shape" fill="#F7C9A4"></path>
                    <path d="M21.5913374,30.968931 L21.5913374,24.7516704 C21.5913374,21.8553452 18.7530395,19.9359688 11.5104863,19.9359688 C4.4287234,19.9359688 1.42963526,21.8553452 1.42963526,24.7516704 L1.42963526,30.968931 L21.5913374,30.968931 Z" id="Shape" fill="#F2F2F1"></path>
                    <path d="M11.5034954,16.8152561 C8.16884498,16.8152561 5.43890578,14.9096882 5.43890578,11.4230512 L5.43890578,6.7903118 C5.43890578,3.30367483 8.16884498,0.448775056 11.5034954,0.448775056 C14.8381459,0.448775056 17.5680851,3.30367483 17.5680851,6.79376392 L17.5680851,11.4230512 C17.5680851,14.9096882 14.8381459,16.8152561 11.5034954,16.8152561 L11.5034954,16.8152561 Z" id="Shape" fill="#FFD9B6"></path>
                    <path d="M7.89969605,10.0560134 C7.89969603,10.3495441 8.02761166,10.6207776 8.23525835,10.767543 C8.44290503,10.9143083 8.6987363,10.9143083 8.90638299,10.767543 C9.11402968,10.6207776 9.2419453,10.3495441 9.24194529,10.0560134 C9.24194529,9.60225424 8.94147256,9.2344098 8.57082067,9.2344098 C8.20016878,9.2344098 7.89969605,9.60225424 7.89969605,10.0560134 L7.89969605,10.0560134 Z" id="Shape" fill="#694B4B"></path>
                    <path d="M13.7370821,10.0560134 C13.7370821,10.5097725 14.0375548,10.8776169 14.4082067,10.8776169 C14.7788586,10.8776169 15.0793313,10.5097725 15.0793313,10.0560134 C15.0793313,9.60225424 14.7788586,9.2344098 14.4082067,9.2344098 C14.0375548,9.2344098 13.7370821,9.60225424 13.7370821,10.0560134 L13.7370821,10.0560134 Z" id="Shape" fill="#694B4B"></path>
                    <path d="M5.47386018,30.968931 L5.47386018,27.1025612 C5.47386018,26.8367483 5.25364742,26.619265 4.98449848,26.619265 C4.71534954,26.619265 4.49513678,26.8367483 4.49513678,27.1025612 L4.49513678,30.9654788 L5.47386018,30.9654788 L5.47386018,30.968931 Z M18.4664134,30.968931 L18.4664134,27.1025612 C18.4664134,26.8367483 18.2462006,26.619265 17.9770517,26.619265 C17.7079027,26.619265 17.48769,26.8367483 17.48769,27.1025612 L17.48769,30.9654788 L18.4664134,30.9654788 L18.4664134,30.968931 Z" id="Shape" fill="#E5E5DB"></path>
                    <path d="M13.8,20.2811804 L9.23844985,20.2811804 C8.93784195,20.7023385 8.93784195,21.3927617 9.23844985,21.8173719 L10.968693,24.2407572 C11.2693009,24.6619154 11.7656535,24.6619154 12.0662614,24.2407572 L13.7965046,21.8173719 C14.1006079,21.3927617 14.1006079,20.7023385 13.8,20.2811804 L13.8,20.2811804 Z" id="Shape" fill="#99CFFF"></path>
                    <path d="M18.0854103,0.711135857 L9.59148936,0.711135857 C8.58130699,0.711135857 7.70395137,1.39120267 7.29148936,2.37160356 C5.98069909,2.48552339 5.07537994,3.75244989 5.07537994,5.27828508 L5.47386018,9.40011136 L7.48024316,9.40011136 C7.57112462,9.40011136 7.64802432,9.32416481 7.64802432,9.23095768 L7.64802432,6.98363029 C7.64802432,6.8766147 7.72492401,6.78685969 7.81930091,6.78685969 L15.2296353,7.50489978 C15.3240122,7.50489978 15.4009119,7.59465479 15.4009119,7.70167038 L15.4009119,9.09977728 C15.4009119,9.22750557 15.5022796,9.33106904 15.6281155,9.33106904 L17.2150456,9.40011136 L17.4632219,9.40011136 C18.1413374,9.40011136 18.7320669,1.44988864 18.7320669,1.44988864 C18.7775076,1.01837416 18.4419453,0.711135857 18.0854103,0.711135857 L18.0854103,0.711135857 Z" id="Shape" fill="#F7CCA5"></path>
                    <path d="M18.4943769,0.0207126949 L9.61595745,0.0207126949 C8.59179331,0.0207126949 7.70395137,0.686971047 7.28799392,1.65011136 C5.95972644,1.76403118 4.90759878,2.99988864 4.90759878,4.49465479 L5.39696049,8.54398664 L6.85106383,8.54398664 C6.94544073,8.54398664 7.01884498,8.46804009 7.01884498,8.37828508 L7.01884498,6.17583519 C7.01884498,6.0688196 7.09574468,5.9825167 7.19361702,5.9825167 L15.8203647,6.75233853 C15.9147416,6.75233853 15.9951368,6.83864143 15.9951368,6.94565702 L15.9951368,8.31959911 C15.9951368,8.44387528 16.0965046,8.54398664 16.2258359,8.54398664 L17.837234,8.54398664 C18.2671733,8.54398664 19.1515198,0.745657016 19.1515198,0.745657016 C19.1899696,0.321046771 18.8544073,0.0207126949 18.4943769,0.0207126949 L18.4943769,0.0207126949 Z" id="Shape" fill="#694B4B"></path>
                    <path d="M11.4755319,20.2466592 L10.199696,22.9876392 C9.9724924,23.3432071 9.72431611,23.7194878 9.35729483,23.3915367 L5.74300912,20.7782851 C5.4668693,20.5055679 5.18723404,20.298441 5.29559271,19.9635857 L6.42462006,18.092539 C6.53297872,17.7576837 6.91398176,17.5747216 7.26702128,17.6886414 L11.0281155,19.435412 C11.3846505,19.5458797 11.5838906,19.911804 11.4755319,20.2466592 Z" id="Shape" fill="#E8E8DD"></path>
                    <path d="M11.5419453,20.2259465 L12.7968085,22.9738307 C13.0205167,23.3328508 13.2651976,23.7091314 13.6392097,23.3846325 L17.2709726,20.7955457 C17.5471125,20.5262806 17.8302432,20.3191537 17.7218845,19.9842984 L16.9878419,18.2099109 C16.8794833,17.8750557 16.5019757,17.6886414 16.1454407,17.7991091 L11.9893617,19.4112472 C11.6398176,19.525167 11.4335866,19.8910913 11.5419453,20.2259465 Z" id="Shape" fill="#E8E8DD"></path>
                    <path d="M12.8037994,30.9896437 L10.2206687,30.9896437 C9.95151976,30.9896437 9.73130699,30.8860802 9.73130699,30.7583519 L10.7799392,23.6469933 C10.7799392,23.519265 11.000152,23.4157016 11.2693009,23.4157016 L11.7551672,23.4157016 C12.0243161,23.4157016 12.2445289,23.519265 12.2445289,23.6469933 L13.2931611,30.7583519 C13.2931611,30.8860802 13.0729483,30.9896437 12.8037994,30.9896437 Z" id="Shape" fill="#99CFFF"></path>
                    <path d="M12.0697568,24.175167 L10.9162614,24.175167 C10.8113982,24.175167 10.7240122,24.0888641 10.7240122,23.9853007 C10.7240122,23.8817372 10.8113982,23.7954343 10.9162614,23.7954343 L12.0697568,23.7954343 C12.1746201,23.7954343 12.2620061,23.8817372 12.2620061,23.9853007 C12.2620061,24.0888641 12.1746201,24.175167 12.0697568,24.175167 Z" id="Shape" fill="#6DB2F7"></path>
                </g>
            </g>
        </g>
    </g>
</svg>