<?xml version="1.0" encoding="UTF-8"?>
<svg width="341px" height="105px" viewBox="0 0 341 105" version="1.1" xmlns="http://www.w3.org/2000/svg" xmlns:xlink="http://www.w3.org/1999/xlink">
    <!-- Generator: Sketch 52.5 (67469) - http://www.bohemiancoding.com/sketch -->
    <title>Page 1</title>
    <desc>Created with Sketch.</desc>
    <defs>
        <polygon id="path-1" points="0.25 0.1156 16.174 0.1156 16.174 36 0.25 36"></polygon>
        <polygon id="path-3" points="0 104.39 340.158 104.39 340.158 0 0 0"></polygon>
    </defs>
    <g id="template" stroke="none" stroke-width="1" fill="none" fill-rule="evenodd">
        <g id="Guideline（ing）" transform="translate(-110.000000, -994.000000)">
            <g id="Part-1" transform="translate(100.000000, 464.000000)">
                <g id="1-LOGO" transform="translate(0.000000, 103.000000)">
                    <g id="Group-6" transform="translate(0.000000, 84.000000)">
                        <g id="Group-2" transform="translate(0.000000, 332.000000)">
                            <g id="Page-1" transform="translate(10.000000, 11.000000)">
                                <path d="M307.537,74.4102 L307.537,84.4082 L305.627,84.4082 L305.627,75.1282 C305.627,74.7322 305.971,74.4102 306.397,74.4102 L307.537,74.4102 Z M312.963,84.4082 L311.053,84.4082 L311.053,74.4102 L312.193,74.4102 C312.619,74.4102 312.963,74.7322 312.963,75.1282 L312.963,84.4082 Z M311.053,98.2282 L311.053,88.2322 L312.963,88.2322 L312.963,97.5122 C312.963,97.9082 312.619,98.2282 312.193,98.2282 L311.053,98.2282 Z M305.627,88.2322 L307.537,88.2322 L307.537,98.2282 L306.397,98.2282 C305.971,98.2282 305.627,97.9082 305.627,97.5122 L305.627,88.2322 Z M304.771,102.0522 L314.149,102.0522 C315.847,102.0522 316.895,100.7682 316.895,99.1822 L316.895,72.0222 C316.895,71.2282 316.205,70.5862 315.685,70.5862 L303.565,70.5862 C302.385,70.5862 301.695,71.2282 301.695,72.0222 L301.695,99.1822 C301.695,100.7682 303.073,102.0522 304.771,102.0522 Z" id="Fill-1" fill="#FEFEFE"></path>
                                <path d="M323.3828,95.252 L335.5848,95.252 L335.5848,98.608 C335.5848,99.796 334.5508,100.762 333.2768,100.762 L325.6888,100.762 C324.4148,100.762 323.3828,99.796 323.3828,98.608 L323.3828,95.252 Z M323.3888,104.344 L335.5788,104.344 C337.7008,104.344 339.4248,102.736 339.4248,100.756 L339.4248,91.67 L319.5428,91.67 L319.5428,100.756 C319.5428,102.736 321.2628,104.344 323.3888,104.344 Z" id="Fill-3" fill="#FEFEFE"></path>
                                <path d="M337.244,86.3144 L332.174,82.8564 L338.698,79.0924 C339.15,78.8324 339.426,78.3684 339.426,77.8704 L339.426,72.1404 C339.426,71.3484 338.738,70.7044 337.888,70.7044 L322.616,70.7044 L322.616,68.5504 L318.772,68.5504 L318.772,72.8564 C318.772,73.6504 319.458,74.2924 320.308,74.2924 L335.582,74.2924 L335.582,75.8704 C335.582,76.3684 335.304,76.8304 334.852,77.0924 L328.822,80.5724 L321.7,75.7144 L319.432,78.6124 L325.29,82.6064 L318.754,86.3784 L318.754,90.6004 L328.202,85.1484 C328.468,84.9944 328.808,85.0064 329.06,85.1784 L335.584,89.6264 C335.848,89.8064 336.166,89.9024 336.492,89.9024 L340.158,89.9024 L340.158,86.3144 L337.244,86.3144 Z" id="Fill-5" fill="#FEFEFE"></path>
                                <g id="Group-9" transform="translate(248.000000, 68.390000)">
                                    <mask id="mask-2" fill="white">
                                        <use xlink:href="#path-1"></use>
                                    </mask>
                                    <g id="Clip-8"></g>
                                    <polygon id="Fill-7" fill="#FEFEFE" mask="url(#mask-2)" points="9.75 2.2976 9.75 0.1156 5.906 0.1156 5.906 2.2976 0.25 2.2976 0.25 5.8876 5.906 5.8876 5.906 36.0016 9.75 36.0016 9.75 5.8876 9.894 5.8876 16.174 5.8876 16.174 2.2976 9.894 2.2976"></polygon>
                                </g>
                                <path d="M271.6854,68.5058 L267.6754,68.5058 L269.5054,74.3418 L265.1994,74.3418 L265.1994,77.9318 L270.6394,77.9318 L272.0394,82.2178 L265.3594,82.2178 L265.3594,85.8078 L273.1714,85.8078 L276.0214,94.9658 L270.3454,100.7418 L265.3594,100.7418 L265.3594,104.3298 L271.3594,104.3298 C271.7914,104.3298 272.2034,104.1618 272.4934,103.8658 L277.2894,98.9858 L278.6554,103.3218 C278.8474,103.9318 279.4494,104.3518 280.1314,104.3518 L286.6994,104.3518 L286.6994,100.7638 L281.8574,100.7638 L280.3214,95.8978 L282.8834,93.2958 L286.6994,93.2958 L286.6994,89.7078 L281.8674,89.7078 C281.4374,89.7078 281.0254,89.8758 280.7334,90.1718 L279.0574,91.8818 L277.1794,85.8078 L286.6994,85.8078 L286.6994,82.2178 L276.0474,82.2178 L274.6454,77.9318 L286.5394,77.9318 L286.5394,74.3418 L273.5134,74.3418 L271.6854,68.5058 Z" id="Fill-10" fill="#FEFEFE"></path>
                                <mask id="mask-4" fill="white">
                                    <use xlink:href="#path-3"></use>
                                </mask>
                                <g id="Clip-13"></g>
                                <polygon id="Fill-12" fill="#FEFEFE" mask="url(#mask-4)" points="249.02 102.326 252.096 102.326 252.096 76.102 249.02 76.102"></polygon>
                                <polygon id="Fill-14" fill="#FEFEFE" mask="url(#mask-4)" points="259.56 102.326 262.636 102.326 262.636 76.102 259.56 76.102"></polygon>
                                <polygon id="Fill-15" fill="#FEFEFE" mask="url(#mask-4)" points="280.448 72.826 286.7 72.826 286.7 69.688 280.448 69.688"></polygon>
                                <polygon id="Fill-16" fill="#FEFEFE" mask="url(#mask-4)" points="340.1582 53.293 325.0382 30.545 325.0262 30.525 339.6122 14.203 328.6122 14.203 316.1042 28.199 316.1042 0.629 307.8882 0.629 307.8882 53.387 316.1042 53.387 316.1042 31.921 330.3082 53.293"></polygon>
                                <path d="M36.994,53.3632 L20.576,53.3632 C9.232,53.3632 0,44.1332 0,32.7852 L0,-0.0008 L8.202,-0.0008 L8.202,32.7852 C8.202,39.6092 13.754,45.1592 20.576,45.1592 L36.994,45.1592 L36.994,53.3632 Z" id="Fill-17" fill="#FEFEFE" mask="url(#mask-4)"></path>
                                <path d="M49.373,29.834 L63.457,29.834 C65.449,29.834 67.071,28.212 67.071,26.22 C67.071,24.228 65.449,22.608 63.457,22.608 L49.373,22.608 L49.373,29.834 Z M75.331,53.42 L52.963,53.42 C46.461,53.42 41.171,48.13 41.171,41.628 L41.171,14.404 L63.457,14.404 C69.973,14.404 75.271,19.706 75.271,26.22 C75.271,32.734 69.973,38.038 63.457,38.038 L49.373,38.038 L49.373,41.628 C49.373,43.608 50.983,45.216 52.963,45.216 L75.331,45.216 L75.331,53.42 Z" id="Fill-18" fill="#FEFEFE" mask="url(#mask-4)"></path>
                                <path d="M301.8066,53.42 L289.1226,53.42 C278.3666,53.42 269.6166,44.668 269.6166,33.912 C269.6166,23.156 278.3666,14.404 289.1226,14.404 L301.8066,14.404 L301.8066,22.608 L289.1226,22.608 C282.8906,22.608 277.8206,27.68 277.8206,33.912 C277.8206,40.146 282.8906,45.216 289.1226,45.216 L301.8066,45.216 L301.8066,53.42 Z" id="Fill-19" fill="#FEFEFE" mask="url(#mask-4)"></path>
                                <path d="M185.9258,53.42 L164.1158,53.42 L164.1158,45.216 L185.9258,45.216 C187.9058,45.216 189.5158,43.606 189.5158,41.628 C189.5158,39.646 187.9058,38.038 185.9258,38.038 L175.4338,38.038 C168.9178,38.038 163.6178,32.734 163.6178,26.22 C163.6178,19.706 168.9178,14.404 175.4338,14.404 L197.6758,14.404 L197.6758,22.608 L175.4338,22.608 C173.4418,22.608 171.8198,24.228 171.8198,26.22 C171.8198,28.212 173.4418,29.834 175.4338,29.834 L185.9258,29.834 C192.4278,29.834 197.7178,35.124 197.7178,41.628 C197.7178,48.128 192.4278,53.42 185.9258,53.42" id="Fill-20" fill="#FEFEFE" mask="url(#mask-4)"></path>
                                <path d="M93.1796,38.0372 C91.2016,38.0372 89.5896,39.6472 89.5896,41.6272 C89.5896,43.6052 91.2016,45.2172 93.1796,45.2172 L107.2876,45.2172 L107.2876,38.0372 L93.1796,38.0372 Z M115.4896,53.4192 L93.1796,53.4192 C86.6776,53.4192 81.3876,48.1292 81.3876,41.6272 C81.3876,35.1232 86.6776,29.8332 93.1796,29.8332 L107.2876,29.8332 L107.2876,26.1952 C107.2876,24.2172 105.6776,22.6072 103.6996,22.6072 L81.3296,22.6072 L81.3296,14.4052 L103.6996,14.4052 C110.2016,14.4052 115.4896,19.6952 115.4896,26.1952 L115.4896,53.4192 Z" id="Fill-21" fill="#FEFEFE" mask="url(#mask-4)"></path>
                                <path d="M241.953,38.0372 C239.973,38.0372 238.363,39.6472 238.363,41.6272 C238.363,43.6052 239.973,45.2172 241.953,45.2172 L256.061,45.2172 L256.061,38.0372 L241.953,38.0372 Z M264.261,53.4192 L241.953,53.4192 C235.449,53.4192 230.161,48.1292 230.161,41.6272 C230.161,35.1232 235.449,29.8332 241.953,29.8332 L256.061,29.8332 L256.061,26.1952 C256.061,24.2172 254.449,22.6072 252.471,22.6072 L230.103,22.6072 L230.103,14.4052 L252.471,14.4052 C258.973,14.4052 264.261,19.6952 264.261,26.1952 L264.261,53.4192 Z" id="Fill-22" fill="#FEFEFE" mask="url(#mask-4)"></path>
                                <path d="M132.4296,45.2168 L138.9096,45.2168 C145.1416,45.2168 150.2156,40.1468 150.2156,33.9128 C150.2156,27.6788 145.1416,22.6068 138.9096,22.6068 L132.4296,22.6068 L132.4296,45.2168 Z M132.4296,67.7828 L124.2256,67.7828 L124.2256,14.4048 L138.9096,14.4048 C149.6656,14.4048 158.4156,23.1568 158.4156,33.9128 C158.4156,44.6688 149.6656,53.4208 138.9096,53.4208 L132.4296,53.4208 L132.4296,67.7828 Z" id="Fill-23" fill="#FEFEFE" mask="url(#mask-4)"></path>
                                <path d="M223.5214,22.6074 L223.5214,14.4034 L213.2994,14.4034 L213.2994,0.6414 L205.0954,0.6414 L205.0954,41.6294 C205.0954,48.1314 210.3854,53.4194 216.8874,53.4194 L223.5214,53.4194 L223.5214,45.2174 L216.8874,45.2174 C214.9074,45.2174 213.2994,43.6074 213.2994,41.6294 L213.2994,22.6074 L223.5214,22.6074 Z" id="Fill-24" fill="#FEFEFE" mask="url(#mask-4)"></path>
                            </g>
                        </g>
                    </g>
                </g>
            </g>
        </g>
    </g>
</svg>